<svg width="303" height="280" viewBox="0 0 303 280" fill="none" xmlns="http://www.w3.org/2000/svg">
<path d="M228.637 171.455C219.1 163.744 218.2 151.11 219.903 140.011C220.187 138.158 220.199 136.17 221.341 134.635C222.482 133.101 224.844 132.205 226.547 133.168C227.96 133.969 228.425 135.638 229.102 137.054C230.014 138.938 231.479 140.544 233.33 141.691C234.538 142.43 236.072 142.968 237.407 142.447C239.219 141.736 239.708 139.535 239.907 137.687C240.286 134.238 240.665 130.786 241.043 127.333C241.242 125.485 241.46 123.592 242.281 121.901C243.103 120.21 244.667 118.714 246.624 118.406C248.581 118.098 250.81 119.353 250.997 121.206C250.983 121.979 250.913 122.75 250.786 123.514C250.755 124.286 251.039 125.194 251.8 125.468C252.561 125.742 253.431 125.322 254.095 124.841C256.373 123.161 258.046 120.921 259.634 118.647C261.223 116.374 262.769 114.061 264.877 112.213C266.985 110.365 269.751 109.004 272.626 109.138C275.501 109.273 278.358 111.216 278.775 113.887C279.192 116.558 277.253 119.05 275.217 120.982C272.206 123.854 268.761 126.306 264.992 128.262C264.27 128.546 263.663 129.034 263.258 129.657C262.684 130.844 263.802 132.199 265.07 132.731C266.502 133.342 268.132 133.358 269.667 133.683C271.201 134.008 272.819 134.803 273.248 136.237C273.852 138.208 271.907 140.022 270.077 141.154C266.412 143.417 262.354 145.08 258.082 146.07C256.56 146.418 254.959 146.703 253.667 147.538C252.374 148.372 251.462 149.968 252.03 151.346C252.598 152.723 254.379 153.322 255.95 153.21C257.52 153.098 258.97 152.46 260.504 152.09C263.361 151.407 266.882 151.934 268.356 154.33C269.346 155.887 269.214 157.909 268.428 159.572C267.563 161.203 266.353 162.655 264.871 163.845C259.962 168.251 253.88 171.37 247.246 172.883C240.65 174.289 234.689 174.255 228.619 171.483" fill="#F5F5F5"/>
<path d="M232.551 164.774C235.252 158.905 238.313 153.184 241.719 147.638L244.377 143.259C245.253 141.826 246.117 140.403 247.059 139.059C248.878 136.472 250.852 133.982 252.972 131.6C254.965 129.321 256.946 127.226 258.819 125.278C260.691 123.329 262.473 121.554 264.176 119.991C266.847 117.518 269.725 115.245 272.783 113.193C273.864 112.465 274.722 111.927 275.308 111.569L275.978 111.166C276.054 111.118 276.132 111.075 276.214 111.037C276.152 111.098 276.08 111.151 276.003 111.194L275.35 111.625C274.776 112 273.937 112.56 272.868 113.305C269.85 115.393 267.005 117.688 264.357 120.17C262.672 121.738 260.909 123.53 259.042 125.474C257.176 127.417 255.219 129.528 253.232 131.807C251.141 134.181 249.192 136.658 247.391 139.227C246.455 140.56 245.579 141.971 244.721 143.41L242.076 147.79C238.672 153.323 235.607 159.029 232.895 164.881" fill="#E0E0E0"/>
<path d="M247.162 139.054C247.097 138.789 247.062 138.519 247.059 138.247C247.017 137.726 246.974 136.965 246.944 136.007C246.878 134.137 246.878 131.555 246.89 128.727C246.902 125.899 246.89 123.295 246.769 121.447C246.721 120.512 246.672 119.767 246.636 119.241C246.605 118.969 246.605 118.695 246.636 118.423C246.717 118.685 246.77 118.953 246.793 119.224C246.878 119.745 246.962 120.495 247.047 121.43C247.21 123.295 247.288 125.91 247.276 128.744C247.264 131.578 247.24 134.098 247.222 136.024V138.264C247.237 138.528 247.217 138.794 247.162 139.054Z" fill="#E0E0E0"/>
<path d="M273.339 137.2C272.993 137.23 272.646 137.23 272.3 137.2C271.636 137.2 270.675 137.166 269.485 137.2C267.106 137.2 263.826 137.306 260.208 137.57C256.59 137.833 253.328 138.219 250.973 138.55C249.795 138.712 248.847 138.863 248.194 138.964C247.855 139.037 247.509 139.08 247.162 139.093C247.488 138.981 247.823 138.895 248.164 138.835C248.817 138.69 249.759 138.499 250.937 138.309C253.28 137.911 256.554 137.497 260.178 137.228C263.275 136.988 266.384 136.897 269.491 136.954C270.699 136.954 271.642 137.038 272.306 137.088C272.653 137.096 272.999 137.134 273.339 137.2Z" fill="#E0E0E0"/>
<path d="M232.913 164.371C232.851 164.276 232.804 164.172 232.774 164.063C232.684 163.817 232.569 163.503 232.436 163.156C232.146 162.372 231.76 161.224 231.294 159.796C230.376 156.946 229.235 152.975 228.045 148.596C226.855 144.217 225.756 140.196 224.898 137.357C224.475 135.962 224.131 134.82 223.877 133.969C223.763 133.599 223.678 133.297 223.6 133.045C223.521 132.793 223.515 132.72 223.533 132.714C223.593 132.812 223.639 132.915 223.672 133.022C223.763 133.269 223.877 133.582 224.01 133.93C224.3 134.714 224.693 135.862 225.152 137.29C226.07 140.134 227.211 144.11 228.401 148.49C229.591 152.869 230.69 156.89 231.548 159.729C231.971 161.123 232.315 162.266 232.569 163.089C232.684 163.458 232.768 163.766 232.847 164.013C232.925 164.259 232.931 164.366 232.913 164.371Z" fill="#E0E0E0"/>
<path d="M268.193 157.59C268.081 157.635 267.963 157.667 267.842 157.685L266.816 157.892L263.035 158.626C259.846 159.247 255.448 160.149 250.592 161.151C245.736 162.154 241.327 163.016 238.126 163.576C236.519 163.856 235.22 164.069 234.32 164.198L233.282 164.343C233.159 164.357 233.036 164.357 232.913 164.343C233.027 164.297 233.147 164.265 233.27 164.248L234.296 164.041L238.071 163.307C241.26 162.686 245.658 161.784 250.514 160.782C255.37 159.779 259.779 158.917 262.986 158.357C264.587 158.077 265.886 157.864 266.785 157.735L267.824 157.59C267.947 157.576 268.07 157.576 268.193 157.59Z" fill="#E0E0E0"/>
<path d="M29.8302 75.7064C29.8302 75.7064 26.0673 77.1176 30.404 84.5264C34.7408 91.9352 37.7185 95.5864 37.7185 95.5864C37.7185 95.5864 38.4976 97.3168 36.9212 97.6248C35.3448 97.9328 31.8476 97.5016 31.1953 99.3048C30.543 101.108 32.0228 102.906 35.0246 104.373C38.0265 105.84 44.4712 109.29 45.0571 109.603C45.643 109.917 46.2107 110.723 45.1779 111.082C44.145 111.44 36.3232 112.398 37.0299 115.808C37.7366 119.218 46.8208 122.08 47.8113 122.382C48.8019 122.685 49.0193 123.088 48.977 123.586C48.9348 124.085 46.247 124.174 44.0363 124.527C41.8257 124.88 39.3251 125.647 39.911 127.585C40.4969 129.522 45.951 133.493 58.931 134.361L64.971 134.394L68.148 129.584C74.188 118.91 73.4692 112.526 72.0015 111.042C70.5338 109.558 68.5164 111.115 67.0185 112.666C65.5206 114.218 64.0408 116.267 63.5455 116.054C63.0502 115.842 62.8388 115.45 63.0623 114.503C63.2858 113.557 65.4783 104.91 62.7603 102.547C60.0423 100.184 55.005 105.84 54.1171 106.467C53.2292 107.094 52.8124 106.204 52.8306 105.594C52.8487 104.983 53.1084 98.0728 53.35 94.9536C53.5916 91.8344 52.8124 89.7176 50.7347 89.2584C48.6569 88.7992 47.2738 91.8008 46.1564 92.876C45.039 93.9512 43.8732 92.4224 43.8732 92.4224C43.8732 92.4224 42.1035 88.1608 37.6158 80.8248C33.1281 73.4888 29.7638 75.7848 29.7638 75.7848" fill="#EBEBEB"/>
<path d="M65.3213 135.705C62.0476 130.306 56.4062 120.618 51.5199 112.325C46.6335 104.031 42.176 96.5272 38.9506 91.112L35.1032 84.7056C34.6562 83.9496 34.2998 83.3672 34.0582 82.9584C33.9435 82.768 33.8529 82.6168 33.7925 82.5048C33.7611 82.4541 33.7329 82.4017 33.7079 82.348L33.8106 82.4992L34.0945 82.9416L35.1696 84.672C36.0998 86.1728 37.4346 88.3512 39.0654 91.056C42.3391 96.4544 46.7906 103.936 51.683 112.241C56.5754 120.546 62.1986 130.228 65.436 135.643" fill="#E0E0E0"/>
<path d="M36.0635 100.1C36.2083 100.118 36.3503 100.152 36.4863 100.201C36.7581 100.274 37.1447 100.391 37.6219 100.537C38.5701 100.834 39.8748 101.276 41.3002 101.791L44.9242 103.113L46.0295 103.51C46.1701 103.549 46.3058 103.602 46.4342 103.667C46.2878 103.651 46.1439 103.619 46.0054 103.572C45.7396 103.499 45.3531 103.382 44.8759 103.23C43.9276 102.922 42.629 102.463 41.2036 101.954L37.5433 100.654L36.432 100.262C36.3036 100.22 36.1802 100.165 36.0635 100.1Z" fill="#E0E0E0"/>
<path d="M46.8631 103.303C46.8147 103.303 47.6845 100.755 48.8019 97.6472C49.9193 94.5392 50.8615 92.0472 50.9099 92.0472C50.9582 92.0472 50.0945 94.5896 48.9771 97.6976C47.8597 100.806 46.9174 103.314 46.8631 103.303Z" fill="#E0E0E0"/>
<path d="M53.7547 116.351C53.8158 116.224 53.895 116.106 53.9903 115.998L54.6788 115.074C55.2828 114.29 56.062 113.21 56.8955 111.983C57.729 110.757 58.4478 109.631 58.9551 108.808L59.5591 107.834C59.6226 107.708 59.7038 107.592 59.8007 107.486C59.7518 107.618 59.6912 107.745 59.6195 107.867C59.4987 108.108 59.3055 108.427 59.0639 108.87C58.5867 109.71 57.8559 110.852 57.0465 112.078C56.2371 113.305 55.3915 114.38 54.7815 115.147C54.4795 115.528 54.2258 115.83 54.0446 116.038C53.9597 116.151 53.8626 116.256 53.7547 116.351Z" fill="#E0E0E0"/>
<path d="M43.2994 115.45C43.436 115.436 43.5736 115.436 43.7102 115.45L44.8276 115.506C45.7758 115.562 47.0805 115.646 48.518 115.752C49.9555 115.858 51.2602 115.97 52.2024 116.054L53.3198 116.166C53.4568 116.173 53.5925 116.193 53.7245 116.228C53.5879 116.241 53.4503 116.241 53.3138 116.228L52.1964 116.172C51.2481 116.116 49.9434 116.032 48.5059 115.92C47.0684 115.808 45.7638 115.707 44.8215 115.623L43.7041 115.511C43.567 115.507 43.431 115.486 43.2994 115.45Z" fill="#E0E0E0"/>
<path d="M47.7993 127.68C47.9761 127.666 48.1539 127.666 48.3308 127.68L49.7623 127.747C50.9703 127.809 52.6494 127.91 54.4976 128.027C56.3459 128.145 58.0129 128.268 59.2209 128.363L60.6524 128.486C60.8292 128.495 61.005 128.518 61.1779 128.554C61.003 128.568 60.8272 128.568 60.6524 128.554L59.2149 128.486C58.0069 128.425 56.3277 128.324 54.4795 128.201C52.6313 128.078 50.9642 127.966 49.7562 127.87L48.3247 127.747C48.1479 127.738 47.9721 127.716 47.7993 127.68Z" fill="#E0E0E0"/>
<path d="M60.8638 128.453C60.9435 128.294 61.0385 128.142 61.1477 127.999L61.9812 126.801C62.6818 125.787 63.6361 124.382 64.6508 122.797C65.6656 121.212 66.5414 119.767 67.1695 118.714C67.4715 118.21 67.7252 117.79 67.9124 117.466C67.9983 117.309 68.0973 117.16 68.2084 117.018C68.1456 117.183 68.0689 117.344 67.9789 117.499C67.8218 117.802 67.5863 118.238 67.2903 118.776C66.6863 119.846 65.8287 121.307 64.8139 122.886C63.7992 124.466 62.8207 125.871 62.0899 126.868C61.7275 127.366 61.4255 127.77 61.208 128.038C61.1071 128.186 60.9919 128.325 60.8638 128.453Z" fill="#E0E0E0"/>
<path d="M234.085 193.559L227.459 225.19L278.077 234.304L284.702 202.673L234.085 193.559Z" fill="#EBEBEB"/>
<path d="M284.791 203.09C284.614 203.216 284.426 203.328 284.229 203.426L282.568 204.316L276.456 207.525L256.155 218.002L255.986 218.086L255.865 217.952L255.563 217.627L240.354 200.962L235.788 195.877L234.58 194.482C234.428 194.325 234.293 194.154 234.176 193.973C234.348 194.112 234.507 194.263 234.653 194.426L235.939 195.765L240.626 200.76C244.57 205.033 249.97 210.885 255.938 217.342L256.24 217.672L255.95 217.622L276.317 207.262L282.502 204.17C283.202 203.829 283.764 203.554 284.193 203.353C284.384 203.249 284.584 203.161 284.791 203.09Z" fill="#E0E0E0"/>
<path d="M227.544 225.607C227.465 225.518 232.176 221.866 238.071 217.454C243.966 213.041 248.817 209.546 248.901 209.642C248.986 209.737 244.268 213.382 238.367 217.795C232.466 222.208 227.604 225.68 227.544 225.607Z" fill="#E0E0E0"/>
<path d="M265.807 212.274C265.922 212.218 268.785 217.202 272.191 223.401C275.598 229.6 278.28 234.668 278.165 234.724C278.05 234.78 275.187 229.796 271.775 223.597C268.362 217.398 265.692 212.33 265.807 212.274Z" fill="#E0E0E0"/>
<path d="M262.684 55.7984C262.399 55.841 262.11 55.8597 261.821 55.8544L259.344 55.8992L250.224 55.9832L220.151 56.0616H217.735V55.7984C217.765 45.3824 217.795 36.0416 217.819 29.2376C217.855 25.8776 217.886 23.1952 217.91 21.2576C217.91 20.3616 217.946 19.6392 217.958 19.096C217.948 18.8446 217.969 18.5929 218.019 18.3456C218.06 18.5938 218.078 18.8449 218.073 19.096L218.121 21.2576C218.121 23.1952 218.176 25.9056 218.212 29.2376C218.212 36.0416 218.266 45.3824 218.296 55.7984L218.019 55.5352H220.163L250.236 55.6136L259.356 55.6976L261.833 55.748C262.118 55.7436 262.402 55.7605 262.684 55.7984Z" fill="#E0E0E0"/>
<path d="M257.719 27.44C257.311 27.8642 256.867 28.2574 256.391 28.616L252.616 31.6904C249.414 34.2664 244.969 37.7944 240.034 41.664L239.285 42.224L239.092 42.3752L238.911 42.2184L233.312 37.3968H233.644L225.442 43.7136L223.056 45.4776C222.786 45.7064 222.488 45.9056 222.168 46.0712C222.404 45.8106 222.667 45.5724 222.953 45.36C223.549 44.8672 224.312 44.2419 225.242 43.484L233.33 37.0496L233.505 36.9096L233.674 37.0608L239.297 41.8544H238.923L239.672 41.2944C244.607 37.4192 249.094 33.936 252.356 31.4328L256.246 28.4872C256.705 28.1012 257.198 27.751 257.719 27.44Z" fill="#E0E0E0"/>
<path d="M257.719 36.1088C257.564 35.2562 257.499 34.3915 257.526 33.5272C257.472 31.9256 257.442 29.7024 257.436 27.2272L257.719 27.4904H257.236C254.458 27.4904 251.945 27.4624 250.121 27.412C249.135 27.4401 248.147 27.3782 247.174 27.2272C248.148 27.0797 249.135 27.0178 250.121 27.0424C251.933 26.9976 254.458 26.964 257.236 26.964H258.003V27.2272C258.003 29.7024 257.967 31.9256 257.919 33.5272C257.946 34.3918 257.879 35.2567 257.719 36.1088Z" fill="#E0E0E0"/>
<path d="M27.9699 193.861C28.8216 193.375 29.7399 192.999 30.7 192.741L31.2617 190.238L35.8219 190.159L36.4803 192.646C37.4464 192.867 38.3766 193.206 39.2466 193.654L41.5539 192.254L44.8336 195.194L43.384 197.4C43.9065 198.186 44.3127 199.034 44.592 199.92L47.2919 200.441L47.3704 204.669L44.6947 205.279C44.4572 206.175 44.0915 207.038 43.6075 207.844L45.1175 209.983L41.9465 213.03L39.5909 211.702C38.7392 212.188 37.821 212.564 36.8608 212.822L36.2991 215.326L31.7389 215.404L31.0805 212.918C30.1141 212.697 29.1838 212.358 28.3142 211.91L26.0069 213.31L22.7212 210.37L24.1527 208.186C23.6292 207.396 23.2229 206.545 22.9447 205.654L20.2448 205.134L20.1602 200.906L22.848 200.284C23.0866 199.388 23.4522 198.526 23.9352 197.719L22.4252 195.58L25.5962 192.534L27.9518 193.861H27.9699ZM30.3859 199.494C29.7219 200.144 29.28 200.961 29.1156 201.843C28.9513 202.724 29.072 203.632 29.4624 204.45C29.8529 205.268 30.4957 205.961 31.3099 206.442C32.1242 206.922 33.0736 207.169 34.0385 207.15C35.0035 207.131 35.9409 206.848 36.7329 206.337C37.5249 205.826 38.136 205.108 38.4893 204.276C38.8427 203.443 38.9225 202.532 38.7187 201.657C38.5149 200.782 38.0366 199.983 37.344 199.36C36.8798 198.945 36.3316 198.618 35.7309 198.4C35.1302 198.182 34.4889 198.076 33.8439 198.088C33.1988 198.101 32.5629 198.232 31.9725 198.473C31.3822 198.714 30.8491 199.061 30.4041 199.494H30.3859Z" fill="#E0E0E0"/>
<path d="M30.4041 199.494C30.6588 199.204 30.9627 198.955 31.304 198.755C32.2466 198.185 33.3746 197.937 34.4931 198.055C35.3263 198.138 36.1232 198.415 36.8097 198.861C37.4961 199.306 38.0498 199.906 38.4191 200.603C38.8588 201.43 39.0248 202.36 38.8963 203.274C38.7568 204.26 38.2793 205.178 37.5344 205.893C36.7895 206.608 35.8165 207.082 34.7589 207.245C34.2609 207.32 33.753 207.32 33.2549 207.245C32.7745 207.187 32.3062 207.062 31.8657 206.875C31.1007 206.559 30.4347 206.067 29.9298 205.448C29.4249 204.828 29.0977 204.099 28.9786 203.33C28.8116 202.296 29.0403 201.24 29.6249 200.346C29.8257 200.016 30.0851 199.721 30.392 199.472C30.392 199.472 30.096 199.774 29.7155 200.396C29.1917 201.282 29.0025 202.305 29.1779 203.302C29.2929 203.984 29.5806 204.631 30.0175 205.19C30.5144 205.832 31.1881 206.339 31.9684 206.657C32.3885 206.831 32.8344 206.946 33.2912 206.998C33.7649 207.059 34.246 207.049 34.7166 206.97C35.7136 206.813 36.63 206.363 37.3319 205.688C38.0339 205.013 38.4847 204.148 38.6185 203.218C38.6971 202.781 38.6971 202.334 38.6185 201.897C38.5496 201.476 38.411 201.068 38.2077 200.687C37.8363 199.974 37.2646 199.367 36.5528 198.929C35.9314 198.549 35.221 198.313 34.4811 198.24C33.401 198.109 32.3048 198.32 31.3705 198.839C30.7 199.214 30.4282 199.522 30.4041 199.494Z" fill="#E0E0E0"/>
<path d="M27.9699 193.861L27.8189 193.788L27.3659 193.547L25.5902 192.573H25.6445L22.4916 195.63V195.552L24.056 197.68V197.719V197.758C23.5808 198.563 23.2214 199.421 22.9869 200.312V200.362H22.9326L20.2568 200.978L20.3354 200.889C20.3656 202.216 20.3958 203.633 20.426 205.117L20.3354 205.016L23.0413 205.531H23.1077V205.593C23.3793 206.472 23.7753 207.314 24.2855 208.096L24.3218 208.152L24.2855 208.208L22.848 210.42V210.274C23.8808 211.198 24.9922 212.195 26.1338 213.209H25.9707L28.2719 211.803L28.3444 211.764L28.4108 211.798C29.259 212.241 30.1669 212.578 31.1107 212.8H31.1892V212.873C31.3946 213.651 31.6181 214.497 31.8476 215.354L31.7087 215.258L36.2749 215.18L36.136 215.286C36.3172 214.491 36.5044 213.64 36.6977 212.783V212.705H36.7823C37.7268 212.456 38.6309 212.091 39.4701 211.618L39.5426 211.579L39.615 211.618L41.9707 212.946H41.7955L44.9665 209.899V210.062L43.4565 207.922L43.4082 207.855L43.4504 207.788C43.9531 206.998 44.3372 206.148 44.592 205.262V205.184H44.6766L47.3523 204.579L47.2496 204.702C47.2254 203.258 47.2013 201.846 47.1771 200.469L47.2798 200.586L44.592 200.043H44.5195V199.976C44.2544 199.097 43.8623 198.255 43.3538 197.473L43.3115 197.411L43.3538 197.355L44.7853 195.171V195.306L41.5116 192.36H41.6445L39.301 193.76L39.2527 193.794L39.1983 193.766C38.3368 193.318 37.4146 192.979 36.4561 192.758H36.4018V192.707L35.7555 190.221L35.834 190.277L31.2738 190.333L31.3342 190.288C31.1047 191.285 30.9114 192.102 30.7302 192.786C30.0097 192.972 29.3099 193.221 28.6404 193.53L28.1511 193.766L27.988 193.844L28.139 193.749C28.2417 193.687 28.4048 193.598 28.6222 193.491C29.2855 193.163 29.9839 192.901 30.706 192.707L30.6698 192.735C30.8208 192.052 31.002 191.229 31.2194 190.232V190.187H31.2738L35.834 190.098H35.9004V190.154C36.1118 190.921 36.3293 191.733 36.5709 192.634L36.4984 192.573C37.4754 192.793 38.416 193.134 39.2949 193.586H39.1922L41.4935 192.181L41.566 192.136L41.6264 192.192L44.9182 195.126L44.9846 195.188L44.9363 195.261L43.5108 197.45V197.333C44.0326 198.131 44.4387 198.99 44.7188 199.886L44.6222 199.808L47.3281 200.323H47.4248V200.48C47.4489 201.854 47.4771 203.263 47.5093 204.708V204.809H47.4067L44.7249 205.419L44.8276 205.324C44.5858 206.231 44.2162 207.105 43.7283 207.922V207.794C44.2236 208.499 44.7309 209.21 45.2383 209.927L45.2987 210.017L45.2202 210.09L42.0552 213.136L41.9767 213.209L41.8801 213.153L39.5244 211.831H39.6634C38.8021 212.318 37.8735 212.695 36.9031 212.951L37.0058 212.85C36.8125 213.707 36.6192 214.564 36.444 215.354V215.454H36.3293L31.7691 215.527H31.6604V215.426L31.008 212.94L31.1107 213.035C30.1316 212.811 29.1891 212.466 28.3082 212.01H28.4471L26.1398 213.41L26.0492 213.466L25.9767 213.399L22.697 210.454L22.6245 210.392L22.6789 210.314C23.1742 209.552 23.6634 208.802 24.1104 208.13V208.242C23.5871 207.442 23.1809 206.581 22.9024 205.682L22.993 205.761L20.2931 205.234H20.2085V205.15C20.1844 203.657 20.1622 202.248 20.1421 200.922V200.85H20.2146L22.848 200.2L22.7816 200.262C23.0248 199.36 23.3944 198.492 23.8808 197.68V197.758L22.3769 195.614V195.574L22.4131 195.535L25.6023 192.506L27.3418 193.508L27.7887 193.771L27.9699 193.861Z" fill="#E0E0E0"/>
<path d="M60.8215 182C61.3307 181.714 61.8793 181.494 62.4523 181.345L62.7905 179.844L65.5206 179.799L65.9132 181.289C66.4939 181.42 67.0526 181.623 67.5742 181.894L68.9513 181.054L70.9143 182.812L70.0627 184.122C70.3707 184.595 70.6084 185.103 70.7694 185.634L72.376 185.92L72.4243 188.451L70.8177 188.815C70.6775 189.352 70.458 189.868 70.1654 190.35L71.0714 191.632L69.1748 193.452L67.7614 192.662C67.2509 192.946 66.7027 193.166 66.1306 193.318L65.7924 194.818L63.0623 194.863L62.6697 193.374C62.0907 193.244 61.5337 193.04 61.0148 192.769L59.6316 193.609L57.6686 191.85L58.5202 190.54C58.2147 190.067 57.9772 189.558 57.8136 189.028L56.2069 188.72L56.1586 186.189L57.7652 185.825C57.9064 185.286 58.1259 184.768 58.4176 184.285L57.5116 183.008L59.4081 181.188L60.8215 182ZM62.2771 185.36C61.8748 185.746 61.6052 186.235 61.5023 186.763C61.3993 187.292 61.4677 187.837 61.6988 188.329C61.9299 188.822 62.3134 189.24 62.8006 189.53C63.2879 189.821 63.8571 189.971 64.4363 189.962C65.0155 189.952 65.5787 189.784 66.0547 189.478C66.5307 189.172 66.8981 188.741 67.1105 188.242C67.3229 187.742 67.3707 187.195 67.2479 186.67C67.1251 186.145 66.8372 185.666 66.4206 185.293C66.1438 185.045 65.8171 184.85 65.459 184.719C65.101 184.588 64.7186 184.524 64.3338 184.53C63.949 184.537 63.5693 184.613 63.2164 184.755C62.8635 184.898 62.5444 185.103 62.2771 185.36Z" fill="#F5F5F5"/>
<path d="M62.2771 185.36C62.4301 185.184 62.6138 185.032 62.8207 184.912C63.3886 184.574 64.0648 184.428 64.7354 184.498C65.1988 184.541 65.6441 184.687 66.034 184.923C66.4857 185.203 66.8485 185.59 67.085 186.043C67.2139 186.283 67.3035 186.54 67.3507 186.805C67.3991 187.081 67.3991 187.363 67.3507 187.639C67.264 188.228 66.9772 188.776 66.532 189.204C66.0868 189.632 65.5062 189.918 64.8743 190.019C64.5763 190.064 64.2724 190.064 63.9744 190.019C63.6857 189.988 63.4043 189.915 63.1409 189.801C62.6561 189.594 62.2393 189.271 61.9329 188.866C61.6656 188.512 61.4918 188.106 61.4255 187.678C61.3276 187.059 61.4643 186.428 61.8121 185.892C61.9314 185.695 62.0867 185.519 62.2711 185.371C62.2711 185.371 62.0959 185.545 61.8664 185.931C61.5542 186.463 61.4416 187.075 61.5463 187.673C61.6201 188.111 61.8122 188.524 62.1047 188.875C62.3972 189.225 62.7807 189.501 63.2194 189.678C63.4678 189.784 63.7328 189.854 64.0046 189.885C64.2887 189.927 64.5781 189.927 64.8623 189.885C65.458 189.79 66.0057 189.522 66.426 189.119C66.8463 188.716 67.1173 188.2 67.1997 187.645C67.2452 187.383 67.2452 187.117 67.1997 186.855C67.1558 186.603 67.0724 186.357 66.9521 186.127C66.7263 185.702 66.3849 185.339 65.9615 185.074C65.504 184.794 64.9702 184.639 64.4219 184.629C63.8736 184.618 63.3331 184.751 62.863 185.013C62.6601 185.117 62.4644 185.233 62.2771 185.36Z" fill="#F5F5F5"/>
<path d="M60.8215 182L60.7309 181.955L60.4591 181.81C60.2114 181.675 59.8551 181.485 59.396 181.25L57.5116 183.081V183.03C57.7894 183.417 58.1156 183.848 58.4236 184.307C58.1392 184.789 57.9239 185.303 57.7834 185.836V185.864L56.1828 186.234L56.225 186.178C56.225 186.973 56.2613 187.818 56.2794 188.709L56.2311 188.647L57.8438 188.961H57.88V189C58.0435 189.525 58.2811 190.028 58.5867 190.495V190.529V190.562C58.3209 190.971 58.031 191.419 57.729 191.873V191.789C58.333 192.349 59.0155 192.909 59.698 193.547H59.6014L60.9785 192.707H61.0208H61.0631C61.5787 192.97 62.1289 193.169 62.6999 193.301H62.7482V193.346C62.8751 193.81 63.008 194.32 63.1408 194.83L63.0623 194.774L65.7924 194.729L65.7139 194.79C65.8166 194.314 65.9313 193.805 66.0461 193.29V193.245H66.0944C66.6612 193.097 67.2037 192.878 67.7071 192.595H67.7554H67.7977L69.205 193.385H69.1023L70.9989 191.559V191.654L70.0929 190.378V190.338V190.299C70.3824 189.823 70.5999 189.313 70.7392 188.782V188.737H70.7875L72.3941 188.373L72.3337 188.446C72.3337 187.583 72.3337 186.738 72.2854 185.914L72.3458 185.982L70.7331 185.668H70.6848V185.623C70.5262 185.097 70.2905 184.594 69.9842 184.128V184.094V184.055L70.8479 182.75V182.829L68.8909 181.07H68.9694L67.5863 181.905C67.0702 181.637 66.5176 181.436 65.9434 181.306V181.278C65.8045 180.718 65.6776 180.247 65.5568 179.788L65.6052 179.822L62.8751 179.855L62.9113 179.827C62.7724 180.426 62.6576 180.947 62.567 181.328C62.1374 181.439 61.7206 181.589 61.3228 181.776L61.0268 181.916L60.9302 181.961L61.0208 181.905C61.0812 181.871 61.1778 181.815 61.3107 181.754C61.707 181.556 62.1239 181.397 62.555 181.278C62.6456 180.869 62.7482 180.376 62.8811 179.777V179.749L65.6112 179.693H65.6474V179.726C65.7682 180.186 65.9011 180.673 66.0461 181.21L66.0038 181.177C66.5879 181.309 67.1505 181.512 67.6769 181.782H67.544L68.9211 180.942H68.9634L68.9996 180.975C69.6036 181.535 70.2801 182.095 70.9687 182.734L71.011 182.767V182.812C70.7331 183.238 70.4553 183.674 70.1593 184.122V184.05C70.4717 184.529 70.7135 185.045 70.8781 185.584L70.8237 185.534L72.4424 185.842H72.5028V185.898C72.5028 186.726 72.5028 187.578 72.5512 188.434V188.49H72.4908L70.8902 188.854L70.9445 188.798C70.8024 189.343 70.5809 189.866 70.2862 190.355V190.277L71.1922 191.554L71.2284 191.604L71.1801 191.649L69.2835 193.474L69.2352 193.519L69.1808 193.486L67.7675 192.69H67.852C67.3377 192.98 66.7829 193.202 66.2031 193.351L66.2635 193.295C66.1427 193.81 66.028 194.32 65.9253 194.79V194.852H65.8588L63.1227 194.897H63.0563V194.841C62.9234 194.326 62.7845 193.816 62.6637 193.351L62.7241 193.407C62.1385 193.271 61.5742 193.066 61.045 192.797H61.1295L59.692 193.693L59.6437 193.721L59.5954 193.682L57.6324 191.923L57.5901 191.884V191.834C57.8921 191.38 58.1941 190.932 58.4478 190.529V190.596C58.1374 190.118 57.8977 189.604 57.735 189.067L57.7894 189.112L56.1707 188.798H56.1224V188.72C56.1224 187.835 56.1224 186.984 56.0861 186.189V186.144H56.1344L57.7411 185.786L57.6988 185.825C57.8453 185.285 58.0687 184.765 58.3632 184.279V184.324L57.4632 183.042V183.014L59.3719 181.205L60.4168 181.804L60.6826 181.961L60.8215 182Z" fill="#F5F5F5"/>
<path d="M69.5976 248.31L68.3534 243.606C66.5227 243.192 64.761 242.549 63.1167 241.696L58.7377 244.356L52.4984 238.756L55.2043 234.618C54.2301 233.123 53.4764 231.515 52.9634 229.835L47.8355 228.844L47.6845 220.808L52.7581 219.654C53.2195 217.948 53.9265 216.308 54.86 214.777L51.991 210.717L58.031 204.932L62.4946 207.446C64.1092 206.544 65.8457 205.843 67.6588 205.363L68.7218 200.614L77.3892 200.469L78.6274 205.173C80.4583 205.592 82.2213 206.234 83.8701 207.082L88.2431 204.422L94.4764 210.022L91.7704 214.161C92.7447 215.657 93.4983 217.267 94.0113 218.949L99.1392 219.94L99.2902 227.97L94.2166 229.124C93.7637 230.819 93.0712 232.452 92.157 233.979L95.026 238.034L88.986 243.813L84.5043 241.36C82.8907 242.263 81.1539 242.962 79.3401 243.438L78.2771 248.192L69.5976 248.31ZM63.1106 241.651C64.7582 242.504 66.5214 243.148 68.3534 243.566L69.5976 248.265L78.2288 248.125L79.2918 243.382C81.1078 242.904 82.8467 242.204 84.462 241.298L88.9256 243.807L94.9173 238.05L92.0543 233.996C92.9731 232.466 93.6677 230.83 94.12 229.13L99.1936 228.01L99.0426 220.007L93.9811 218.96C93.4658 217.276 92.7101 215.664 91.7342 214.166L94.4401 210.028L88.225 204.473L83.852 207.127C82.2031 206.279 80.4402 205.636 78.6093 205.218L77.3469 200.48L68.7158 200.62L67.6527 205.363C65.8335 205.837 64.0922 206.538 62.4764 207.446L57.9948 204.96L52.0031 210.717L54.86 214.777C53.9412 216.307 53.2466 217.943 52.7943 219.643L47.7207 220.797L47.8717 228.799L52.9936 229.785C53.5113 231.468 54.2668 233.079 55.2405 234.578L52.5406 238.711L58.7498 244.272L63.1106 241.651ZM73.7531 232.753C71.9274 232.752 70.1422 232.253 68.6201 231.319C67.098 230.384 65.9062 229.055 65.1933 227.496C64.4804 225.938 64.2779 224.219 64.6111 222.555C64.9443 220.891 65.7983 219.354 67.0668 218.137C67.915 217.322 68.9283 216.669 70.0487 216.218C71.1691 215.766 72.3745 215.524 73.5961 215.505H73.7652C76.1931 215.54 78.51 216.454 80.2208 218.052C81.9317 219.649 82.9009 221.804 82.9214 224.055C82.9419 226.306 82.0121 228.476 80.3305 230.1C78.649 231.724 76.3492 232.674 73.9222 232.747L73.7531 232.753ZM67.1091 218.148C65.849 219.361 65.0008 220.89 64.6698 222.545C64.3388 224.201 64.5396 225.911 65.2473 227.461C65.9549 229.012 67.1383 230.336 68.6505 231.269C70.1626 232.202 71.9369 232.702 73.7531 232.708H73.9222C76.3412 232.635 78.6335 231.688 80.3095 230.069C81.9854 228.45 82.9121 226.288 82.8916 224.044C82.8711 221.8 81.905 219.652 80.1997 218.06C78.4944 216.468 76.1852 215.557 73.7652 215.522H73.584C72.3665 215.537 71.1644 215.777 70.0477 216.226C68.9309 216.676 67.9218 217.328 67.0789 218.142L67.1091 218.148Z" fill="#E0E0E0"/>
<path d="M67.0789 218.148C67.5672 217.594 68.1509 217.119 68.8064 216.742C70.5942 215.667 72.7282 215.198 74.8464 215.415C76.4269 215.572 77.9389 216.097 79.2412 216.943C80.5435 217.788 81.5936 218.925 82.2937 220.248C82.7046 221.011 82.9897 221.826 83.1393 222.667C83.3064 223.542 83.3227 224.436 83.1876 225.316C82.925 227.186 82.0194 228.928 80.6051 230.284C79.1908 231.64 77.343 232.537 75.3356 232.842C73.474 233.136 71.5603 232.907 69.8392 232.187C68.3903 231.585 67.1289 230.654 66.1722 229.479C65.2156 228.304 64.5946 226.924 64.367 225.467C64.0534 223.507 64.4802 221.507 65.575 219.806C65.959 219.184 66.4508 218.626 67.0306 218.154C66.574 218.715 66.1486 219.299 65.7562 219.901C64.7575 221.579 64.3959 223.52 64.7294 225.411C64.9676 226.799 65.5774 228.108 66.5028 229.221C67.4282 230.333 68.6397 231.212 70.0265 231.778C71.66 232.451 73.4724 232.658 75.2329 232.372C77.1255 232.074 78.8656 231.222 80.1989 229.941C81.5323 228.661 82.389 227.019 82.644 225.254C82.8862 223.615 82.6004 221.945 81.8226 220.455C81.1642 219.19 80.174 218.098 78.9426 217.279C77.7112 216.46 76.2779 215.94 74.7739 215.768C72.7252 215.519 70.6454 215.913 68.8668 216.888C68.2487 217.28 67.652 217.701 67.0789 218.148Z" fill="#E0E0E0"/>
<path d="M62.4644 207.463L62.1745 207.318L61.3168 206.858L57.9465 205.016H58.0552L52.0756 210.823V210.666L54.9627 214.715L55.011 214.788L54.9687 214.861C54.0625 216.383 53.378 218.01 52.9333 219.699V219.794H52.8306L47.7509 220.965L47.8959 220.791C47.9503 223.317 48.0107 225.999 48.0711 228.81L47.9019 228.626L53.048 229.6H53.1809L53.2171 229.723C53.734 231.388 54.4854 232.983 55.4519 234.466L55.5244 234.573L55.4519 234.685L52.746 238.834L52.7098 238.56L58.9129 244.16H58.6048L62.9717 241.494L63.1046 241.416L63.2375 241.489C64.8692 242.328 66.6139 242.963 68.4259 243.376L68.5769 243.41L68.6131 243.55C69.0057 245.028 69.4345 246.635 69.8634 248.259L69.6037 248.074L78.259 247.934L78.0053 248.13C78.3435 246.63 78.7059 245.011 79.0683 243.382L79.1046 243.23L79.2556 243.191C81.0492 242.718 82.7674 242.027 84.3654 241.136L84.5043 241.063L84.6433 241.142L89.1129 243.65L88.7867 243.69L94.8267 237.922L94.7965 238.224C93.8361 236.858 92.8758 235.508 91.9335 234.17L91.849 234.046L91.9215 233.918C92.8311 232.405 93.5197 230.788 93.969 229.107L94.0053 228.967L94.1563 228.934L99.2359 227.786L99.0426 228.015C98.9943 225.279 98.948 222.604 98.9037 219.99L99.097 220.209L93.9751 219.218L93.8361 219.19L93.7939 219.061C93.2859 217.394 92.5404 215.797 91.5772 214.312L91.5047 214.2L91.5772 214.088C92.5134 212.671 93.3892 211.288 94.2952 209.95L94.3314 210.202L88.1163 204.602H88.3699L83.9909 207.25L83.8943 207.306L83.7916 207.256C82.1582 206.405 80.4092 205.761 78.5912 205.341H78.4885V205.246L77.2805 200.53L77.4375 200.642L68.7822 200.749L68.897 200.659C68.4561 202.552 68.0937 204.109 67.7977 205.402V205.453H67.7494C66.383 205.799 65.0576 206.272 63.7932 206.864L62.857 207.312C62.7597 207.371 62.6565 207.422 62.5489 207.463C62.6381 207.392 62.7353 207.33 62.8389 207.278C63.0382 207.166 63.3341 206.998 63.7509 206.791C65.0076 206.168 66.3316 205.668 67.7011 205.302L67.6407 205.358C67.9245 204.064 68.2447 202.502 68.6735 200.603V200.519H68.7701L77.4255 200.346H77.5463V200.458C77.9389 201.914 78.3496 203.454 78.8086 205.162L78.6818 205.044C80.534 205.462 82.3176 206.108 83.9849 206.965H83.7856L88.1525 204.294L88.2914 204.215L88.4062 204.316L94.6455 209.882L94.7723 209.994L94.6817 210.134C93.8059 211.484 92.906 212.862 91.9758 214.284V214.066C92.965 215.579 93.7309 217.208 94.2529 218.91L94.0717 218.753L99.1936 219.738L99.3869 219.772V219.957C99.4352 222.57 99.4876 225.245 99.5439 227.982V228.166L99.3446 228.211L94.265 229.37L94.4522 229.197C93.999 230.919 93.2982 232.576 92.3684 234.125V233.873L95.2374 237.927L95.3522 238.09L95.2072 238.23L89.1974 244.009L89.0525 244.149L88.8713 244.048L84.3956 241.534H84.6674C83.0311 242.45 81.2699 243.16 79.4307 243.645L79.618 243.454C79.2556 245.09 78.8871 246.708 78.5549 248.203L78.5066 248.399H78.2952L69.6459 248.539H69.4345L69.3862 248.354C68.9574 246.73 68.5346 245.118 68.142 243.645L68.3353 243.818C66.4788 243.391 64.6916 242.738 63.0201 241.875H63.2798L58.9068 244.53L58.7377 244.63L58.5988 244.507L52.3776 238.907L52.2387 238.784L52.3413 238.633L55.0593 234.494V234.713C54.0735 233.196 53.3117 231.563 52.7943 229.858L52.9574 230.003L47.8113 229.04L47.6483 229.006V228.855C47.5999 226.055 47.5577 223.356 47.5154 220.83V220.64L47.6603 220.606L52.746 219.486L52.6192 219.604C53.0829 217.892 53.7876 216.245 54.7151 214.704V214.855L51.8702 210.79L51.8098 210.706L51.8823 210.633L57.9223 204.893L57.9646 204.848L58.025 204.882L61.3168 206.78L62.1684 207.278C62.2738 207.33 62.373 207.392 62.4644 207.463Z" fill="#E0E0E0"/>
<path d="M235.403 32.0621L54.3048 44.4807L71.4009 258.79L252.499 246.371L235.403 32.0621Z" fill="white"/>
<path d="M71.168 259.084V258.804L53.9842 44.24H54.2862L235.686 31.7464V32.0264L252.821 246.613H252.519L71.168 259.084ZM54.6305 44.7328L71.6995 258.485L252.193 246.098L235.124 32.3456L54.6305 44.7328Z" fill="#263238"/>
<path d="M219.423 41.4138L170.632 44.7596L170.864 47.6636L219.654 44.3178L219.423 41.4138Z" fill="#EF476F"/>
<path d="M218.84 63.7056L218.544 63.756L217.68 63.84L214.515 64.1088L204.048 64.9152C199.959 65.2232 196.262 65.4752 193.581 65.632L190.404 65.8056L189.54 65.8392C189.44 65.849 189.338 65.849 189.238 65.8392C189.333 65.8089 189.433 65.7919 189.534 65.7888L190.398 65.6992L193.563 65.436L204.048 64.624C208.131 64.3104 211.828 64.064 214.509 63.9016L217.686 63.728L218.55 63.6944C218.647 63.6835 218.745 63.6873 218.84 63.7056Z" fill="#EF476F"/>
<path d="M221.763 74.6536C221.763 74.7376 211.133 75.5328 198.008 76.4344C184.883 77.336 174.229 77.9968 174.222 77.9184C174.216 77.84 184.853 77.0448 197.984 76.1432C211.115 75.2416 221.757 74.5752 221.763 74.6536Z" fill="#263238"/>
<path d="M222.567 88.6144C222.567 88.6984 211.936 89.4936 198.811 90.3952C185.686 91.2968 175.056 91.9632 175.056 91.8792C175.056 91.7952 185.686 91.0056 198.817 90.104C211.948 89.2024 222.561 88.536 222.567 88.6144Z" fill="#263238"/>
<path d="M222.567 81.6368C222.567 81.7152 211.936 82.5104 198.811 83.412C185.686 84.3136 175.056 84.98 175.056 84.9016C175.056 84.8232 185.686 84.0224 198.817 83.1208C211.948 82.2192 222.561 81.5584 222.567 81.6368Z" fill="#263238"/>
<path d="M122.78 179.39C122.78 179.469 117.271 179.917 110.464 180.382C103.657 180.846 98.1306 181.166 98.1245 181.082C98.1185 180.998 103.633 180.561 110.44 180.09C117.247 179.62 122.774 179.312 122.78 179.39Z" fill="#EF476F"/>
<path d="M112.476 192.808C112.476 192.892 105.095 193.463 95.9743 194.09C86.8539 194.718 79.4609 195.154 79.4549 195.076C79.4488 194.998 86.8297 194.426 95.9561 193.799C105.083 193.172 112.47 192.73 112.476 192.808Z" fill="#EF476F"/>
<path d="M172.64 193.945C172.64 194.023 151.887 195.513 126.277 197.271C100.667 199.03 79.8897 200.39 79.8837 200.312C79.8777 200.234 100.631 198.738 126.253 196.98C151.874 195.222 172.64 193.866 172.64 193.945Z" fill="#263238"/>
<path d="M113.514 205.828C113.514 205.906 106.134 206.478 97.0192 207.105C87.9048 207.732 80.4998 208.174 80.4937 208.09C80.4877 208.006 87.8746 207.441 96.995 206.814C106.115 206.186 113.508 205.744 113.514 205.828Z" fill="#EF476F"/>
<path d="M173.667 206.959C173.667 207.043 152.913 208.533 127.304 210.291C101.694 212.05 80.9166 213.405 80.9105 213.326C80.9045 213.248 101.658 211.758 127.28 210C152.901 208.242 173.661 206.881 173.667 206.959Z" fill="#263238"/>
<path d="M114.553 218.842C114.553 218.921 107.172 219.492 98.0581 220.119C88.9437 220.746 81.5387 221.189 81.5326 221.11C81.5266 221.032 88.9135 220.455 98.0339 219.828C107.154 219.201 114.547 218.758 114.553 218.842Z" fill="#EF476F"/>
<path d="M174.706 219.974C174.706 220.058 153.952 221.547 128.343 223.306C102.733 225.064 81.9554 226.425 81.9494 226.341C81.9434 226.257 102.697 224.773 128.318 223.014C153.94 221.256 174.7 219.895 174.706 219.974Z" fill="#263238"/>
<path d="M116.849 232.019C116.849 232.098 109.462 232.669 100.347 233.296C91.2329 233.923 83.852 234.366 83.852 234.282C83.852 234.198 91.2329 233.632 100.353 233.005C109.474 232.378 116.836 231.935 116.849 232.019Z" fill="#EF476F"/>
<path d="M177.001 233.15C177.001 233.234 156.241 234.724 130.632 236.51C105.022 238.297 84.2446 239.63 84.2386 239.546C84.2325 239.462 104.992 237.978 130.608 236.219C156.223 234.461 176.989 233.072 177.001 233.15Z" fill="#263238"/>
<path d="M91.9291 176.801L80.6048 177.578L81.1367 184.246L92.461 183.47L91.9291 176.801Z" fill="#EF476F"/>
<path d="M89.0683 183.706L84.5206 184.018L84.6872 186.107L89.235 185.795L89.0683 183.706Z" fill="#EF476F"/>
<path d="M90.9852 185.595C89.7368 185.846 88.4681 186.002 87.1921 186.06C85.925 186.215 84.6461 186.272 83.3688 186.228C84.6178 185.98 85.8863 185.827 87.1619 185.769C88.4294 185.617 89.7079 185.559 90.9852 185.595Z" fill="#EF476F"/>
<path d="M183.433 169.221L190.512 165.62L197.483 168.073L190.953 171.881L183.433 169.221Z" fill="#EF476F"/>
<path d="M185.131 170.727L185.415 174.815L196.323 173.925L195.948 169.982L190.911 172.805L185.131 170.727Z" fill="#EF476F"/>
<path d="M228.208 170.016C228.208 170.1 222.7 170.542 215.892 171.007C209.085 171.472 203.559 171.791 203.553 171.713C203.547 171.634 209.061 171.186 215.868 170.716C222.675 170.246 228.208 169.938 228.208 170.016Z" fill="#EF476F"/>
<path d="M202.919 184.072C202.919 184.15 199.131 184.475 194.463 184.794C189.794 185.114 185.976 185.315 185.97 185.231C185.964 185.147 189.757 184.828 194.426 184.503C199.095 184.178 202.912 183.988 202.919 184.072Z" fill="#263238"/>
<path d="M234.031 187.6C234.031 187.684 223.382 188.479 210.239 189.381C197.096 190.282 186.423 190.949 186.417 190.87C186.411 190.792 197.066 189.991 210.215 189.09C223.364 188.188 234.025 187.544 234.031 187.6Z" fill="#263238"/>
<path d="M204.187 198.61C204.187 198.694 200.406 199.018 195.731 199.338C191.056 199.657 187.275 199.858 187.245 199.774C187.214 199.69 191.026 199.371 195.701 199.046C200.376 198.722 204.181 198.531 204.187 198.61Z" fill="#263238"/>
<path d="M235.299 202.16C235.299 202.244 224.65 203.039 211.507 203.941C198.364 204.842 187.698 205.509 187.686 205.43C187.674 205.352 198.334 204.551 211.483 203.65C224.632 202.748 235.293 202.087 235.299 202.16Z" fill="#263238"/>
<path d="M205.153 212.979C205.153 213.063 201.366 213.388 196.697 213.707C192.028 214.026 188.241 214.222 188.205 214.144C188.169 214.066 191.992 213.741 196.661 213.416C201.33 213.091 205.147 212.901 205.153 212.979Z" fill="#263238"/>
<path d="M236.265 216.535C236.265 216.619 225.617 217.414 212.474 218.316C199.331 219.218 188.658 219.884 188.652 219.806C188.646 219.727 199.301 218.926 212.45 218.025C225.599 217.123 236.259 216.457 236.265 216.535Z" fill="#263238"/>
<path d="M206.881 228.178C206.881 228.256 203.1 228.581 198.425 228.906C193.75 229.23 189.969 229.421 189.939 229.342C189.908 229.264 193.72 228.934 198.395 228.614C203.07 228.295 206.875 228.099 206.881 228.178Z" fill="#263238"/>
<path d="M237.993 231.734C237.993 231.812 227.344 232.607 214.201 233.514C201.058 234.422 190.392 235.082 190.386 234.998C190.379 234.914 201.028 234.125 214.177 233.223C227.326 232.322 237.987 231.65 237.993 231.734Z" fill="#263238"/>
<path d="M179.544 63.28C180.019 63.0445 180.409 62.6851 180.667 62.2463C180.925 61.8075 181.038 61.3083 180.993 60.8104C180.993 60.4812 180.919 60.1557 180.778 59.8539C180.636 59.5521 180.429 59.2806 180.169 59.0561C179.909 58.8317 179.602 58.6591 179.268 58.5492C178.933 58.4392 178.578 58.3941 178.224 58.4168C177.869 58.4395 177.524 58.5294 177.209 58.681C176.894 58.8326 176.616 59.0427 176.392 59.2981C176.168 59.5535 176.003 59.8489 175.907 60.1659C175.811 60.4829 175.787 60.8147 175.835 61.1408C175.869 61.6372 176.059 62.1137 176.381 62.5116C176.702 62.9095 177.143 63.2116 177.647 63.3808C173.727 64.204 174.229 68.1912 174.229 68.1912L183.609 67.5864C183.609 67.5864 183.512 63.5656 179.544 63.28Z" fill="#EF476F"/>
<path d="M194.825 119.739C194.825 119.823 191.014 120.148 186.296 120.473C181.579 120.798 177.75 120.994 177.744 120.915C177.738 120.837 181.555 120.506 186.272 120.182C190.99 119.857 194.819 119.661 194.825 119.739Z" fill="#263238"/>
<path d="M195.471 126.734C195.471 126.812 191.66 127.142 186.943 127.467C182.225 127.792 178.396 127.988 178.39 127.904C178.384 127.82 182.201 127.495 186.919 127.176C191.636 126.857 195.465 126.655 195.471 126.734Z" fill="#263238"/>
<path d="M228.607 118.244L200.823 120.154C200.574 120.171 200.327 120.095 200.138 119.944C199.949 119.793 199.832 119.578 199.814 119.347C199.796 119.116 199.877 118.888 200.04 118.713C200.203 118.537 200.435 118.429 200.684 118.412L228.468 116.502C228.591 116.493 228.715 116.507 228.833 116.543C228.951 116.578 229.06 116.635 229.154 116.71C229.248 116.785 229.324 116.877 229.38 116.98C229.435 117.082 229.468 117.194 229.476 117.309C229.486 117.423 229.472 117.538 229.433 117.648C229.395 117.757 229.333 117.858 229.252 117.945C229.171 118.032 229.073 118.103 228.962 118.154C228.851 118.206 228.73 118.236 228.607 118.244Z" fill="#E0E0E0"/>
<path d="M224.548 118.524L200.805 120.154C200.555 120.171 200.309 120.095 200.12 119.944C199.931 119.793 199.814 119.578 199.796 119.347C199.778 119.116 199.859 118.888 200.022 118.713C200.185 118.537 200.417 118.429 200.666 118.412L224.409 116.782C224.658 116.765 224.904 116.841 225.093 116.992C225.282 117.143 225.399 117.358 225.418 117.589C225.434 117.819 225.352 118.047 225.19 118.222C225.027 118.397 224.796 118.505 224.548 118.524Z" fill="#EF476F"/>
<path d="M229.132 124.824L201.348 126.728C201.099 126.745 200.853 126.67 200.664 126.518C200.475 126.367 200.358 126.153 200.339 125.922C200.323 125.691 200.405 125.464 200.567 125.289C200.73 125.114 200.961 125.005 201.209 124.986L228.993 123.082C229.117 123.073 229.241 123.087 229.359 123.123C229.476 123.158 229.585 123.215 229.679 123.29C229.773 123.365 229.85 123.457 229.905 123.56C229.961 123.662 229.993 123.774 230.002 123.889C230.02 124.12 229.939 124.348 229.776 124.523C229.613 124.699 229.381 124.807 229.132 124.824Z" fill="#E0E0E0"/>
<path d="M220.839 125.39L201.33 126.728C201.081 126.745 200.835 126.67 200.646 126.518C200.457 126.367 200.34 126.153 200.321 125.922C200.305 125.691 200.387 125.464 200.549 125.289C200.712 125.114 200.943 125.005 201.191 124.986L220.7 123.648C220.949 123.631 221.195 123.706 221.385 123.858C221.574 124.009 221.69 124.224 221.709 124.454C221.727 124.685 221.646 124.914 221.483 125.089C221.32 125.264 221.088 125.372 220.839 125.39Z" fill="#EF476F"/>
<path d="M196.293 133.874C196.293 133.952 192.481 134.282 187.764 134.602C183.047 134.921 179.218 135.122 179.212 135.044C179.205 134.966 183.023 134.635 187.74 134.31C192.457 133.986 196.287 133.79 196.293 133.874Z" fill="#263238"/>
<path d="M196.939 140.862C196.939 140.946 193.128 141.271 188.41 141.596C183.693 141.921 179.864 142.117 179.858 142.038C179.852 141.96 183.669 141.63 188.386 141.305C193.104 140.98 196.933 140.784 196.939 140.862Z" fill="#263238"/>
<path d="M230.074 132.373L202.29 134.282C202.041 134.299 201.795 134.224 201.606 134.073C201.417 133.922 201.3 133.707 201.282 133.476C201.263 133.245 201.345 133.017 201.508 132.841C201.671 132.666 201.902 132.558 202.151 132.541L229.935 130.631C230.184 130.614 230.431 130.69 230.62 130.841C230.809 130.992 230.926 131.207 230.944 131.438C230.954 131.552 230.939 131.667 230.901 131.776C230.862 131.886 230.801 131.987 230.72 132.074C230.639 132.161 230.54 132.232 230.429 132.283C230.319 132.335 230.198 132.365 230.074 132.373Z" fill="#E0E0E0"/>
<path d="M226.009 132.653L202.272 134.282C202.023 134.299 201.777 134.224 201.588 134.073C201.399 133.922 201.282 133.707 201.264 133.476C201.245 133.245 201.327 133.017 201.49 132.841C201.653 132.666 201.884 132.558 202.133 132.541L225.871 130.911C226.12 130.894 226.366 130.97 226.555 131.121C226.744 131.272 226.861 131.487 226.879 131.718C226.889 131.832 226.874 131.947 226.836 132.056C226.797 132.166 226.736 132.267 226.655 132.354C226.574 132.441 226.475 132.512 226.365 132.563C226.254 132.615 226.133 132.645 226.009 132.653Z" fill="#EF476F"/>
<path d="M230.624 138.953L202.84 140.862C202.591 140.879 202.345 140.804 202.156 140.653C201.967 140.502 201.85 140.287 201.831 140.056C201.813 139.825 201.894 139.597 202.057 139.422C202.221 139.246 202.452 139.138 202.701 139.121L230.485 137.211C230.734 137.194 230.98 137.27 231.169 137.421C231.359 137.572 231.475 137.787 231.494 138.018C231.512 138.249 231.431 138.477 231.268 138.652C231.105 138.827 230.873 138.936 230.624 138.953Z" fill="#E0E0E0"/>
<path d="M222.307 139.524L202.798 140.862C202.549 140.879 202.302 140.804 202.113 140.653C201.924 140.502 201.808 140.287 201.789 140.056C201.771 139.825 201.852 139.597 202.015 139.421C202.178 139.246 202.41 139.138 202.659 139.121L222.168 137.76C222.417 137.743 222.663 137.818 222.852 137.97C223.041 138.121 223.158 138.335 223.177 138.566C223.189 138.683 223.176 138.8 223.139 138.911C223.102 139.023 223.041 139.126 222.96 139.215C222.879 139.305 222.779 139.378 222.667 139.431C222.555 139.484 222.432 139.516 222.307 139.524Z" fill="#EF476F"/>
<path d="M197.911 148.316C197.911 148.4 194.094 148.725 189.377 149.05C184.66 149.374 180.83 149.57 180.824 149.492C180.818 149.414 184.635 149.083 189.353 148.758C194.07 148.434 197.905 148.238 197.911 148.316Z" fill="#263238"/>
<path d="M231.693 146.821L203.909 148.725C203.66 148.742 203.414 148.666 203.225 148.515C203.036 148.364 202.919 148.149 202.9 147.918C202.885 147.688 202.968 147.462 203.13 147.287C203.293 147.112 203.522 147.003 203.77 146.983L231.554 145.079C231.804 145.062 232.051 145.137 232.241 145.289C232.431 145.44 232.549 145.654 232.569 145.886C232.585 146.117 232.503 146.345 232.339 146.52C232.175 146.696 231.943 146.804 231.693 146.821Z" fill="#E0E0E0"/>
<path d="M219.311 147.666L203.885 148.725C203.636 148.742 203.39 148.666 203.201 148.515C203.011 148.364 202.895 148.149 202.876 147.918C202.861 147.688 202.944 147.462 203.106 147.287C203.268 147.112 203.498 147.003 203.746 146.983L219.148 145.925C219.397 145.909 219.642 145.985 219.831 146.136C220.019 146.287 220.137 146.501 220.157 146.731C220.175 146.959 220.097 147.184 219.939 147.358C219.781 147.533 219.556 147.644 219.311 147.666Z" fill="#EF476F"/>
<path d="M185.578 112.616L184.599 111.02C185.217 110.113 185.447 109.024 185.242 107.967C185.038 106.911 184.414 105.964 183.494 105.313C182.574 104.661 181.425 104.353 180.272 104.448C179.119 104.543 178.046 105.035 177.265 105.827C176.483 106.618 176.05 107.653 176.05 108.726C176.05 109.799 176.483 110.833 177.264 111.625C178.046 112.417 179.118 112.909 180.271 113.004C181.424 113.1 182.574 112.791 183.494 112.14L185.578 112.616Z" fill="#EF476F"/>
<path d="M221.28 106.54C221.28 106.624 214.848 107.134 206.893 107.66C198.938 108.186 192.487 108.584 192.481 108.506C192.475 108.427 198.914 107.918 206.869 107.386C214.823 106.854 221.274 106.462 221.28 106.54Z" fill="#EF476F"/>
<path d="M57.9344 44.4528L69.4708 170.985L171.263 163.962L160.27 37.2064L57.9344 44.4528Z" fill="#EBEBEB"/>
<path d="M162.876 33.5355L61.9902 40.0831L71.5844 167.158L172.471 160.611L162.876 33.5355Z" fill="#FAFAFA"/>
<path d="M71.772 166.774V166.494L61.6369 39.4856H61.9328L162.843 32.536V32.816L172.984 159.824H172.682L71.772 166.774ZM62.2832 40.0008L72.376 166.174L172.38 159.309L162.287 33.1408L62.2832 40.0008Z" fill="#263238"/>
<path d="M142.325 52.024C142.305 51.9542 142.291 51.8831 142.283 51.8112C142.283 51.6544 142.229 51.4472 142.186 51.184C142.108 50.624 141.993 49.8008 141.854 48.7648C141.715 47.7288 141.54 46.4184 141.341 44.9288C141.261 44.1345 141.129 43.3454 140.948 42.5656C140.843 42.1476 140.657 41.751 140.398 41.3952C140.132 41.0259 139.741 40.7484 139.287 40.6056C138.79 40.478 138.265 40.4729 137.765 40.5908C137.265 40.7086 136.807 40.9454 136.436 41.2776C135.64 42.0429 135.128 43.0238 134.975 44.0776C134.6 46.4064 134.674 48.7782 135.192 51.0832C135.428 52.3096 135.681 53.5752 135.983 54.852C136.256 56.1523 136.756 57.4026 137.463 58.5536C138.205 59.7314 139.37 60.6294 140.755 61.0904C141.454 61.3198 142.208 61.3701 142.935 61.236C143.671 61.0946 144.349 60.7647 144.892 60.284C145.977 59.2997 146.654 57.9936 146.807 56.5936C146.944 55.2241 146.906 53.8443 146.692 52.4832C146.366 49.7728 146.052 47.1632 145.75 44.6432C145.599 43.4 145.454 42.1848 145.315 41.0088C145.176 39.8328 145.049 38.6848 144.82 37.5984C144.628 36.5475 144.28 35.5261 143.787 34.5632C143.332 33.6806 142.669 32.9038 141.848 32.2896C140.389 31.2618 138.579 30.7549 136.75 30.8616C135.367 30.9025 134.037 31.3628 132.963 32.172C132.304 32.7016 131.805 33.3809 131.514 34.1432C131.32 34.6696 131.278 34.9608 131.254 34.9608C131.287 34.6767 131.354 34.3969 131.453 34.1264C131.724 33.3413 132.216 32.6376 132.879 32.088C133.965 31.243 135.322 30.7547 136.738 30.6992C138.615 30.5718 140.477 31.0791 141.981 32.1272C142.837 32.7536 143.529 33.552 144.004 34.4624C144.513 35.4424 144.875 36.4825 145.079 37.5536C145.309 38.6736 145.442 39.7936 145.593 40.9808C145.744 42.168 145.883 43.372 146.04 44.6152C146.342 47.1016 146.644 49.7168 146.994 52.4216C147.216 53.8064 147.257 55.211 147.115 56.6048C146.955 58.0734 146.243 59.4431 145.104 60.4744C144.516 60.9886 143.787 61.3414 142.996 61.4936C142.216 61.6349 141.409 61.5828 140.658 61.3424C139.205 60.8541 137.981 59.9115 137.197 58.6768C136.48 57.4961 135.972 56.216 135.693 54.8856C135.391 53.5976 135.144 52.3376 134.908 51.1C134.383 48.7579 134.311 46.3478 134.697 43.9824C134.874 42.8876 135.419 41.8725 136.255 41.0816C136.658 40.7245 137.156 40.4719 137.697 40.349C138.239 40.2262 138.806 40.2374 139.341 40.3816C139.836 40.5436 140.26 40.8502 140.549 41.2552C140.818 41.6305 141.01 42.048 141.117 42.4872C141.293 43.2785 141.419 44.0789 141.492 44.884C141.667 46.3736 141.824 47.684 141.951 48.72C142.078 49.756 142.162 50.5736 142.229 51.1448C142.229 51.4136 142.277 51.6208 142.289 51.7776C142.31 51.8585 142.322 51.941 142.325 52.024Z" fill="#263238"/>
<path d="M100.897 47.5272L92.912 44.4528C90.7557 45.724 87.2344 49.224 86.268 53.1328C85.7118 55.2742 85.5081 57.4813 85.664 59.6792C85.7969 62.048 85.5674 64.5568 84.154 66.5336C83.1453 67.9392 81.5206 69.1656 81.4904 70.8568C81.4602 72.8 83.6285 74.4744 83.1876 76.3784C82.8312 77.9016 81.0011 78.6688 80.0468 79.9512C78.6576 81.8104 79.328 84.3528 80.234 86.4528C82.4205 91.5208 77.7697 98.812 81.8648 102.732C85.9056 99.6576 97.8527 93.9568 101.893 90.8824C102.844 90.2621 103.631 89.4504 104.195 88.508C104.895 87.08 104.515 85.428 104.152 83.8992C101.314 71.9652 100.219 59.7317 100.897 47.5272Z" fill="#263238"/>
<path d="M148.649 134.926L144.711 131.23L102.612 142.24C102.612 142.24 100.299 159.398 100.534 160.496C100.77 161.594 100.534 164.73 100.534 164.73L158.633 160.53C158.633 160.53 159.292 145.919 148.649 134.926Z" fill="#263238"/>
<path d="M113.998 149.845C113.942 150.001 113.861 150.149 113.756 150.282C113.581 150.545 113.327 150.931 112.965 151.402C112.546 151.935 112.064 152.424 111.527 152.858C110.846 153.375 110.062 153.763 109.22 154C107.711 154.446 106.135 154.664 104.551 154.644C104.075 154.642 103.599 154.616 103.126 154.566C102.948 154.564 102.772 154.534 102.606 154.476C102.606 154.431 103.355 154.476 104.551 154.437C106.103 154.394 107.642 154.153 109.123 153.72C109.929 153.478 110.679 153.098 111.334 152.6C111.865 152.184 112.35 151.721 112.784 151.217C113.539 150.394 113.955 149.817 113.998 149.845Z" fill="#455A64"/>
<path d="M127.847 162.792C127.768 162.622 127.713 162.443 127.684 162.26C127.6 161.918 127.485 161.414 127.364 160.787C127.11 159.538 126.815 157.808 126.585 155.882C126.355 153.955 126.235 152.197 126.186 150.931C126.186 150.298 126.15 149.811 126.156 149.425C126.136 149.238 126.149 149.049 126.192 148.865C126.308 149.542 126.381 150.224 126.41 150.909C126.519 152.169 126.67 153.916 126.899 155.837C127.129 157.758 127.388 159.488 127.582 160.742C127.72 161.419 127.809 162.104 127.847 162.792Z" fill="#455A64"/>
<path d="M131.87 161.896C131.779 161.896 131.423 158.995 131.073 155.406C130.722 151.816 130.469 148.898 130.583 148.887C130.698 148.876 131.03 151.788 131.381 155.378C131.731 158.967 131.955 161.89 131.87 161.896Z" fill="#455A64"/>
<path d="M152.285 141.87C152.174 142.032 152.042 142.18 151.893 142.313C151.627 142.587 151.234 142.974 150.685 143.433C150.082 143.972 149.425 144.456 148.722 144.878C147.847 145.401 146.87 145.758 145.847 145.93C144.811 146.084 143.751 145.973 142.778 145.611C141.998 145.316 141.265 144.924 140.598 144.446C140.15 144.131 139.722 143.79 139.317 143.427C139.158 143.304 139.016 143.163 138.895 143.007C138.931 142.968 139.583 143.522 140.707 144.278C141.371 144.722 142.093 145.085 142.857 145.359C143.785 145.69 144.792 145.787 145.774 145.639C146.756 145.477 147.696 145.14 148.54 144.648C149.24 144.244 149.901 143.785 150.515 143.276C151.621 142.408 152.249 141.837 152.285 141.87Z" fill="#455A64"/>
<path d="M155.505 152.734C155.334 152.856 155.147 152.958 154.949 153.037L153.397 153.787C152.086 154.426 150.292 155.338 148.377 156.436C146.463 157.534 144.753 158.62 143.545 159.421L142.126 160.373C141.961 160.503 141.778 160.612 141.582 160.698C141.721 160.545 141.877 160.406 142.047 160.283C142.361 160.031 142.827 159.678 143.412 159.253C146.49 157.054 149.808 155.16 153.312 153.602C153.982 153.306 154.52 153.076 154.919 152.93C155.103 152.84 155.3 152.774 155.505 152.734Z" fill="#455A64"/>
<path d="M117.102 148.159C117.06 148.159 116.915 147.89 116.722 147.414C116.474 146.789 116.296 146.142 116.19 145.482C116.087 144.813 116.128 144.132 116.311 143.478C116.369 143.201 116.495 142.94 116.679 142.716C116.471 143.611 116.412 144.531 116.504 145.443C116.607 146.087 116.75 146.725 116.933 147.353C117.039 147.611 117.096 147.883 117.102 148.159Z" fill="#455A64"/>
<path d="M119.639 148.299C119.494 148.049 119.394 147.778 119.343 147.498C119.148 146.839 119.016 146.164 118.95 145.482C118.926 145.108 118.946 144.732 119.011 144.362C119.076 144.053 119.188 143.753 119.343 143.472C119.609 142.996 119.881 142.778 119.905 142.8C119.804 143.06 119.683 143.313 119.542 143.556C119.298 144.173 119.203 144.833 119.265 145.488C119.319 146.261 119.482 146.961 119.567 147.476C119.64 147.745 119.664 148.023 119.639 148.299Z" fill="#455A64"/>
<path d="M135.192 146.944C135.185 145.547 134.872 144.166 134.273 142.883C133.674 141.601 132.801 140.445 131.707 139.485C132.105 139.683 132.461 139.947 132.758 140.263C133.52 140.989 134.134 141.838 134.57 142.766C135.004 143.695 135.252 144.69 135.301 145.701C135.344 146.118 135.307 146.539 135.192 146.944Z" fill="#455A64"/>
<path d="M137.989 146.037C137.716 144.778 137.344 143.539 136.877 142.33C136.306 141.166 135.644 140.043 134.896 138.97C135.219 139.209 135.496 139.497 135.717 139.821C136.898 141.323 137.661 143.071 137.94 144.911C138.019 145.282 138.035 145.662 137.989 146.037Z" fill="#455A64"/>
<path d="M127.292 144.105C127.292 144.105 127.4 143.954 127.714 143.819C128.164 143.638 128.671 143.62 129.134 143.769C129.461 143.868 129.753 144.048 129.979 144.29C130.235 144.575 130.382 144.932 130.396 145.303C130.413 145.71 130.297 146.112 130.064 146.457C129.938 146.645 129.772 146.809 129.577 146.937C129.382 147.066 129.162 147.158 128.929 147.207C128.479 147.293 128.011 147.238 127.599 147.05C127.187 146.863 126.854 146.553 126.651 146.171C126.498 145.831 126.46 145.456 126.543 145.096C126.589 144.778 126.729 144.477 126.947 144.228C127.288 143.902 127.746 143.703 128.234 143.668C128.323 143.654 128.414 143.657 128.501 143.678C128.588 143.698 128.67 143.735 128.741 143.786C128.576 143.773 128.411 143.773 128.246 143.786C127.807 143.858 127.409 144.068 127.117 144.379C126.941 144.603 126.832 144.866 126.802 145.141C126.739 145.454 126.776 145.777 126.911 146.07C127.093 146.389 127.381 146.645 127.733 146.801C128.084 146.956 128.48 147.002 128.862 146.933C129.235 146.835 129.561 146.622 129.787 146.33C130.012 146.039 130.125 145.684 130.106 145.326C130.102 145.009 129.988 144.703 129.78 144.452C129.587 144.241 129.34 144.077 129.061 143.976C128.644 143.824 128.184 143.811 127.757 143.937C127.455 144.021 127.34 144.127 127.292 144.105Z" fill="#455A64"/>
<path d="M89.6625 89.74C89.3303 90.1152 79.6421 95.8384 78.1865 99.5232C76.7308 103.208 79.0743 118.238 79.479 120.837C79.8837 123.435 85.3801 133.246 85.3801 133.246C85.3801 133.246 84.2265 137.48 85.7365 140.09C86.7177 141.704 88.1876 143.016 89.9645 143.864L99.701 138.919L93.661 113.574L89.6625 89.74Z" fill="#EF476F"/>
<path d="M90.7195 116.362C90.9973 115.998 91.3718 115.763 91.6013 115.489C91.8308 115.214 92.3261 115.091 92.5617 115.354C92.7972 115.618 92.5617 116.105 92.2536 116.396C93.2321 116.43 93.975 115.186 94.9233 115.433C95.0682 115.493 95.1988 115.58 95.3077 115.687C95.4165 115.794 95.5014 115.921 95.5575 116.059C95.6136 116.196 95.6398 116.343 95.6346 116.49C95.6295 116.638 95.593 116.783 95.5273 116.917C95.2229 117.448 94.7422 117.874 94.1562 118.132C93.5699 118.384 93.0426 118.739 92.604 119.179C92.3986 119.426 92.2657 119.801 92.4892 120.036C92.8697 120.439 93.7516 119.963 94.0898 120.394C94.3133 120.686 94.0415 121.078 93.7818 121.346C92.8274 122.302 91.8772 123.263 90.9309 124.23C90.7026 124.506 90.4008 124.723 90.0551 124.858C89.8806 124.917 89.6881 124.914 89.5159 124.849C89.3437 124.784 89.2041 124.661 89.1249 124.505C89.0979 124.337 89.1289 124.165 89.2135 124.014C89.2981 123.863 89.432 123.741 89.596 123.665C89.9313 123.527 90.2527 123.362 90.5564 123.172C90.7048 123.074 90.8061 122.926 90.8388 122.76C90.8715 122.593 90.833 122.422 90.7316 122.282C90.4114 121.979 89.8678 122.231 89.5236 122.494L86.2016 124.914C85.9738 125.112 85.6919 125.25 85.3862 125.311C85.2337 125.335 85.0773 125.303 84.9492 125.223C84.8211 125.143 84.7311 125.02 84.6976 124.88C84.7012 124.73 84.7516 124.584 84.8426 124.46C85.4442 123.483 86.2688 122.641 87.2586 121.99C87.6597 121.777 88.0207 121.505 88.3276 121.184C88.4769 121.021 88.5671 120.819 88.5855 120.606C88.6039 120.393 88.5496 120.18 88.4303 119.997C87.7776 120.567 87.0561 121.065 86.2801 121.481C86.0083 121.632 85.6096 121.755 85.4043 121.526C85.1989 121.296 85.4043 120.966 85.6278 120.714L89.0645 116.973C89.1882 116.798 89.3479 116.648 89.5345 116.531C89.7211 116.413 89.9309 116.331 90.1517 116.29L90.7195 116.362Z" fill="white"/>
<path d="M95.5092 81.5416L94.724 85.9712L87.5726 91.28C87.5726 91.28 85.8814 101.282 87.4941 111.44C87.4941 111.44 97.9735 137.76 98.2272 138.88C98.7044 141.014 102.932 142.8 102.932 142.8C102.932 142.8 118.896 142.94 124.38 142.206C129.865 141.473 143.104 133.717 144.373 132.686C145.641 131.656 147.073 126.706 147.073 126.706L137.312 101.36L136.762 83.5296L122.176 80.0576L117.223 76.5072L95.5092 81.5416Z" fill="#EF476F"/>
<path d="M138.526 100.033C138.804 99.6688 139.178 99.4336 139.402 99.1592C139.625 98.8848 140.133 98.7616 140.368 99.0248C140.604 99.288 140.368 99.7752 140.054 100.066C141.039 100.1 141.782 98.8568 142.73 99.1032C142.875 99.1637 143.005 99.2501 143.114 99.3575C143.223 99.4649 143.308 99.5911 143.364 99.729C143.42 99.8669 143.446 100.014 143.441 100.161C143.436 100.308 143.4 100.453 143.334 100.587C143.03 101.118 142.549 101.544 141.963 101.802C141.377 102.054 140.849 102.41 140.411 102.85C140.205 103.102 140.072 103.471 140.296 103.706C140.67 104.11 141.558 103.634 141.896 104.065C142.12 104.356 141.848 104.748 141.588 105.017C140.634 105.976 139.684 106.938 138.737 107.901C138.509 108.177 138.207 108.393 137.862 108.528C137.687 108.589 137.494 108.587 137.322 108.521C137.149 108.456 137.01 108.332 136.932 108.175C136.904 108.008 136.935 107.836 137.02 107.686C137.104 107.536 137.238 107.415 137.403 107.341C137.737 107.199 138.058 107.032 138.363 106.842C138.51 106.743 138.61 106.596 138.643 106.43C138.676 106.264 138.638 106.093 138.538 105.952C138.218 105.65 137.674 105.902 137.33 106.165L133.984 108.584C133.759 108.784 133.479 108.921 133.175 108.982C133.022 109.005 132.866 108.973 132.738 108.893C132.61 108.813 132.52 108.69 132.486 108.55C132.49 108.4 132.54 108.255 132.631 108.13C133.233 107.154 134.057 106.311 135.047 105.661C135.448 105.447 135.809 105.175 136.116 104.854C136.265 104.691 136.356 104.489 136.374 104.276C136.392 104.063 136.338 103.85 136.219 103.667C135.566 104.237 134.845 104.735 134.069 105.151C133.791 105.302 133.398 105.426 133.193 105.196C132.987 104.966 133.193 104.636 133.416 104.384C134.564 103.133 135.709 101.886 136.853 100.643C136.977 100.468 137.136 100.318 137.323 100.201C137.51 100.084 137.719 100.002 137.94 99.96L138.526 100.033Z" fill="white"/>
<path d="M136.527 83.6136C136.527 83.6136 144.602 86.24 146.716 90.72C148.83 95.2 156.924 116.48 156.417 120.4C155.909 124.32 154.562 128.8 150.902 129.002C147.242 129.203 143.05 125.748 143.05 125.748L139.764 120.792L139.939 115.601L136.207 101.78L136.527 83.6136Z" fill="#EF476F"/>
<path d="M95.8172 83.7088C95.8172 83.7424 112.5 102.659 112.5 102.659L114.765 85.1312L117.924 76.5016L96.1796 81.48L95.8172 83.7088Z" fill="#967262"/>
<g opacity="0.3">
<path d="M130.245 82.348C129.261 81.8888 128.077 82.2528 127.08 82.684C121.439 85.1536 115.308 88.1496 113.653 93.7216L113.587 97.0816C114.106 99.1088 116.365 100.442 118.606 100.621C120.847 100.8 123.052 100.027 125.057 99.0864C126.858 98.2465 128.576 97.2608 130.191 96.1408C131.085 95.5192 132.003 94.7576 132.178 93.7328C132.402 92.3328 131.133 91.112 130.849 89.7232C130.577 88.4296 131.175 87.1304 131.453 85.8368C131.731 84.5432 131.52 82.936 130.245 82.348Z" fill="black"/>
</g>
<path d="M87.476 111.468C87.5453 111.569 87.6002 111.678 87.6391 111.793L88.0498 112.745C88.3941 113.579 88.8894 114.783 89.4813 116.278C90.6893 119.269 92.1933 123.441 93.9026 128.038C94.7663 130.334 95.6059 132.518 96.379 134.495C96.7655 135.486 97.1219 136.433 97.4964 137.295C97.8425 138.096 98.2692 138.865 98.7708 139.591C99.5077 140.638 100.478 141.525 101.616 142.195C102.431 142.66 102.932 142.839 102.914 142.867C102.789 142.838 102.667 142.797 102.552 142.744C102.208 142.617 101.874 142.465 101.555 142.29C100.368 141.648 99.3536 140.763 98.5896 139.703C98.0641 138.975 97.617 138.2 97.2548 137.39C96.8622 136.517 96.4998 135.576 96.1011 134.59C95.3159 132.614 94.4643 130.435 93.6066 128.134C91.9154 123.553 90.3873 119.403 89.2699 116.374C88.7142 114.89 88.2612 113.686 87.935 112.806L87.5787 111.832C87.5315 111.714 87.4971 111.592 87.476 111.468Z" fill="#263238"/>
<path d="M112.421 103.258C112.362 103.208 112.309 103.152 112.264 103.09L111.835 102.581C111.461 102.138 110.917 101.461 110.205 100.677C108.262 98.4722 106.157 96.3952 103.905 94.4608L104.146 94.3656C104.08 96.9304 104.007 99.8088 103.929 102.844C103.929 103.113 103.929 103.404 103.929 103.628V104.227L103.651 103.667C101.084 98.7896 98.7829 94.4048 97.1038 91.2016C96.2944 89.6336 95.6421 88.3568 95.1649 87.4384C94.9535 87.0128 94.7844 86.6712 94.6576 86.408C94.5933 86.2907 94.5388 86.169 94.4945 86.044C94.5808 86.1498 94.6538 86.2644 94.7119 86.3856C94.8569 86.6376 95.0441 86.9456 95.2736 87.388L97.3031 91.112C99.0064 94.304 101.338 98.672 103.947 103.538L103.651 103.6C103.651 103.348 103.651 103.085 103.651 102.816C103.742 99.7808 103.82 96.9024 103.893 94.3376V94.0408L104.122 94.2424C106.37 96.198 108.456 98.3077 110.362 100.554C111.056 101.377 111.57 102.049 111.932 102.508L112.325 103.04C112.367 103.109 112.399 103.182 112.421 103.258Z" fill="#263238"/>
<path d="M136.17 116.939C136.237 116.995 131.338 121.828 125.298 127.73C119.258 133.633 114.257 138.37 114.197 138.32C114.137 138.27 118.999 133.437 125.069 127.529C131.139 121.621 136.11 116.883 136.17 116.939Z" fill="#263238"/>
<path d="M127.117 141.294C126.917 140.72 126.759 140.134 126.645 139.541C126.374 138.454 125.963 136.965 125.401 135.352C124.839 133.739 124.223 132.306 123.752 131.281C123.473 130.735 123.229 130.174 123.021 129.601C123.387 130.102 123.701 130.635 123.958 131.191C124.632 132.51 125.213 133.868 125.697 135.257C126.186 136.643 126.575 138.057 126.863 139.49C127.013 140.082 127.098 140.686 127.117 141.294Z" fill="#263238"/>
<path d="M86.2257 110.538C84.8198 109.831 83.4659 109.037 82.1729 108.164C80.8177 107.374 79.5203 106.503 78.2892 105.554C79.6973 106.26 81.0533 107.051 82.348 107.923C83.7013 108.715 84.9967 109.588 86.2257 110.538Z" fill="#263238"/>
<path d="M150.896 128.968C150.896 128.968 150.824 128.968 150.685 128.968H150.081C149.749 128.97 149.417 128.946 149.09 128.895C148.644 128.84 148.203 128.75 147.773 128.626C146.62 128.272 145.559 127.7 144.657 126.946C143.505 125.976 142.594 124.786 141.987 123.458C141.419 121.33 140.779 118.978 140.127 116.48C138.919 111.742 137.777 107.458 136.962 104.311L136.032 100.615L135.796 99.6072C135.762 99.4919 135.742 99.3737 135.736 99.2544C135.794 99.3627 135.836 99.4775 135.862 99.596C135.935 99.8536 136.032 100.184 136.152 100.587C136.406 101.494 136.756 102.738 137.173 104.261C138.019 107.402 139.166 111.681 140.435 116.413C141.087 118.899 141.709 121.268 142.247 123.396C142.833 124.691 143.708 125.857 144.814 126.818C145.687 127.562 146.714 128.134 147.834 128.498C148.83 128.771 149.858 128.929 150.896 128.968Z" fill="#263238"/>
<path d="M91.9033 129.315C91.5059 129.418 91.1026 129.5 90.6953 129.562C88.7925 130 87.1214 131.054 85.9841 132.535C85.7741 132.859 85.5463 133.173 85.3016 133.476C85.3878 133.098 85.5563 132.739 85.7969 132.423C86.3293 131.627 87.0374 130.943 87.8747 130.418C88.7062 129.885 89.6517 129.524 90.647 129.36C91.0573 129.261 91.486 129.245 91.9033 129.315Z" fill="#263238"/>
<path d="M92.012 128.677C91.136 129.156 90.1779 129.494 89.1793 129.674C88.2021 129.952 87.1801 130.069 86.1593 130.021C86.1593 129.937 87.482 129.763 89.0887 129.394C90.6953 129.024 91.9758 128.598 92.012 128.677Z" fill="#263238"/>
<path d="M90.1215 97.5688C90.4054 97.2048 90.7799 96.9696 91.0034 96.6952C91.2268 96.4208 91.7282 96.292 91.9698 96.5608C92.2114 96.8296 91.9698 97.3056 91.6557 97.5968C92.6402 97.636 93.3831 96.3928 94.3314 96.6392C94.4763 96.6997 94.6069 96.7861 94.7157 96.8935C94.8246 97.0009 94.9094 97.1271 94.9656 97.265C95.0217 97.4028 95.0479 97.5496 95.0427 97.6969C95.0375 97.8441 95.0011 97.989 94.9354 98.1232C94.631 98.6543 94.1503 99.0804 93.5643 99.3384C92.9808 99.5916 92.4557 99.9472 92.0181 100.386C91.8127 100.632 91.6798 101.007 91.9033 101.242C92.2778 101.646 93.1657 101.17 93.4979 101.601C93.7274 101.892 93.4556 102.284 93.1898 102.547L90.345 105.437C90.1167 105.713 89.8149 105.929 89.4692 106.064C89.2947 106.124 89.1023 106.121 88.93 106.056C88.7578 105.99 88.6182 105.867 88.539 105.711C88.512 105.543 88.543 105.371 88.6276 105.22C88.7123 105.069 88.8461 104.947 89.0102 104.871C89.3436 104.73 89.6647 104.565 89.9705 104.378C90.1179 104.279 90.218 104.131 90.2496 103.965C90.2811 103.799 90.2417 103.628 90.1396 103.488C89.8256 103.18 89.282 103.438 88.9316 103.695L85.6036 106.12C85.3788 106.32 85.0986 106.457 84.7942 106.518C84.6418 106.541 84.4854 106.509 84.3573 106.429C84.2292 106.349 84.1391 106.226 84.1057 106.086C84.1083 105.936 84.1587 105.79 84.2506 105.666C84.8594 104.686 85.6948 103.842 86.6968 103.197C87.0947 102.982 87.4535 102.709 87.7599 102.39C87.91 102.228 88.0013 102.026 88.0208 101.813C88.0404 101.6 87.9871 101.387 87.8686 101.203C87.2132 101.77 86.492 102.268 85.7184 102.687C85.4405 102.838 85.0479 102.956 84.8426 102.732C84.6372 102.508 84.8426 102.172 85.06 101.914L88.5028 98.1792C88.7529 97.8255 89.1437 97.5779 89.59 97.4904L90.1215 97.5688Z" fill="white"/>
<path d="M115.502 105.174C115.779 104.81 116.154 104.574 116.383 104.3C116.613 104.026 117.108 103.897 117.344 104.166C117.579 104.434 117.344 104.91 117.03 105.202C118.014 105.241 118.757 103.998 119.705 104.244C119.85 104.304 119.981 104.391 120.09 104.498C120.199 104.606 120.283 104.732 120.34 104.87C120.396 105.008 120.422 105.154 120.417 105.302C120.412 105.449 120.375 105.594 120.309 105.728C120.004 106.257 119.523 106.681 118.938 106.938C118.353 107.193 117.826 107.551 117.386 107.99C117.181 108.237 117.048 108.612 117.271 108.847C117.652 109.245 118.534 108.774 118.872 109.206C119.095 109.497 118.824 109.889 118.564 110.152L115.713 113.042C115.486 113.322 115.184 113.542 114.837 113.68C114.662 113.74 114.469 113.736 114.297 113.669C114.124 113.603 113.985 113.479 113.907 113.322C113.88 113.154 113.912 112.983 113.996 112.833C114.081 112.683 114.215 112.562 114.378 112.487C114.711 112.345 115.032 112.181 115.339 111.994C115.616 111.776 115.767 111.345 115.514 111.104C115.26 110.863 114.65 111.054 114.306 111.311L110.984 113.736C110.753 113.931 110.472 114.068 110.168 114.134C110.016 114.157 109.859 114.125 109.731 114.045C109.603 113.965 109.513 113.842 109.48 113.702C109.482 113.552 109.533 113.406 109.625 113.282C110.223 112.304 111.048 111.46 112.041 110.813C112.44 110.598 112.801 110.325 113.11 110.006C113.259 109.843 113.349 109.641 113.368 109.428C113.386 109.215 113.332 109.002 113.212 108.819C112.558 109.387 111.837 109.885 111.062 110.303C110.79 110.449 110.392 110.572 110.186 110.348C109.981 110.124 110.186 109.788 110.41 109.53C111.557 108.287 112.703 107.04 113.847 105.79C114.1 105.44 114.49 105.195 114.934 105.106L115.502 105.174Z" fill="white"/>
<path d="M105.832 127.467C106.115 127.103 106.49 126.868 106.713 126.594C106.937 126.319 107.438 126.196 107.68 126.459C107.921 126.722 107.68 127.21 107.366 127.495C108.35 127.534 109.093 126.291 110.041 126.538C110.186 126.598 110.317 126.685 110.426 126.792C110.535 126.899 110.619 127.026 110.676 127.163C110.732 127.301 110.758 127.448 110.753 127.595C110.748 127.743 110.711 127.887 110.645 128.022C110.341 128.553 109.86 128.979 109.274 129.237C108.691 129.49 108.166 129.846 107.728 130.284C107.523 130.53 107.39 130.906 107.613 131.141C107.988 131.544 108.876 131.068 109.208 131.499C109.437 131.79 109.166 132.182 108.9 132.446L106.055 135.335C105.827 135.611 105.525 135.827 105.179 135.962C105.005 136.022 104.812 136.019 104.64 135.954C104.468 135.889 104.328 135.766 104.249 135.61C104.222 135.441 104.253 135.27 104.338 135.119C104.422 134.968 104.556 134.846 104.72 134.77C105.055 134.632 105.377 134.467 105.681 134.277C105.828 134.178 105.928 134.03 105.96 133.863C105.991 133.697 105.952 133.526 105.85 133.386C105.536 133.078 104.992 133.336 104.642 133.594L101.314 136.018C101.089 136.218 100.809 136.356 100.504 136.416C100.352 136.439 100.195 136.408 100.067 136.328C99.9392 136.247 99.8492 136.125 99.8157 135.985C99.8183 135.835 99.8687 135.688 99.9607 135.565C100.562 134.588 101.387 133.745 102.377 133.095C102.777 132.883 103.136 132.611 103.44 132.289C103.59 132.127 103.681 131.925 103.701 131.711C103.72 131.498 103.667 131.285 103.548 131.102C102.895 131.67 102.173 132.168 101.398 132.586C101.12 132.737 100.728 132.86 100.522 132.63C100.317 132.401 100.522 132.07 100.74 131.818L104.183 128.078C104.433 127.724 104.824 127.476 105.27 127.389L105.832 127.467Z" fill="white"/>
<path d="M134.685 125.507C134.962 125.143 135.343 124.908 135.566 124.634C135.79 124.359 136.291 124.23 136.533 124.499C136.774 124.768 136.503 125.244 136.219 125.535C137.203 125.574 137.946 124.331 138.895 124.578C139.039 124.638 139.17 124.725 139.279 124.832C139.388 124.939 139.473 125.066 139.529 125.203C139.585 125.341 139.611 125.488 139.606 125.635C139.601 125.783 139.564 125.927 139.499 126.062C139.193 126.591 138.712 127.015 138.127 127.271C137.545 127.528 137.02 127.886 136.581 128.324C136.376 128.57 136.243 128.946 136.466 129.181C136.841 129.578 137.729 129.108 138.061 129.539C138.291 129.83 138.013 130.222 137.753 130.486L134.902 133.375C134.675 133.652 134.373 133.869 134.026 134.002C133.851 134.061 133.658 134.056 133.487 133.99C133.315 133.924 133.175 133.8 133.096 133.644C133.069 133.476 133.101 133.304 133.187 133.154C133.272 133.004 133.408 132.883 133.573 132.81C133.905 132.669 134.224 132.504 134.528 132.317C134.805 132.098 134.956 131.667 134.703 131.426C134.449 131.186 133.845 131.376 133.495 131.634L130.173 134.058C129.944 134.256 129.663 134.393 129.357 134.456C129.205 134.479 129.048 134.448 128.92 134.368C128.792 134.287 128.702 134.165 128.669 134.025C128.671 133.874 128.724 133.727 128.82 133.605C129.427 132.623 130.262 131.779 131.266 131.135C131.663 130.918 132.021 130.647 132.329 130.329C132.479 130.167 132.57 129.965 132.59 129.751C132.61 129.538 132.556 129.325 132.438 129.142C131.782 129.708 131.061 130.206 130.288 130.626C130.01 130.777 129.611 130.894 129.406 130.67C129.2 130.446 129.406 130.11 129.629 129.853L133.072 126.118C133.195 125.942 133.355 125.79 133.541 125.672C133.728 125.554 133.938 125.471 134.159 125.429L134.685 125.507Z" fill="white"/>
<path d="M123.668 128.503C123.602 128.434 123.547 128.357 123.505 128.274L123.082 127.585C122.719 126.991 122.212 126.112 121.614 125.02C120.406 122.836 118.83 119.767 117.277 116.312C115.725 112.857 114.493 109.654 113.653 107.318C113.243 106.148 112.929 105.202 112.723 104.518C112.633 104.216 112.56 103.958 112.5 103.757C112.466 103.668 112.445 103.576 112.439 103.482C112.491 103.563 112.532 103.65 112.56 103.74C112.633 103.942 112.729 104.188 112.844 104.485C113.098 105.174 113.448 106.103 113.865 107.229C114.735 109.542 115.997 112.722 117.543 116.189C119.089 119.655 120.63 122.713 121.771 124.914C122.333 125.989 122.798 126.868 123.148 127.523L123.517 128.234C123.581 128.317 123.632 128.407 123.668 128.503Z" fill="#263238"/>
<path d="M156.441 119.918C156.441 120.338 154.351 121.218 153.904 121.173L153.378 121.022C153.04 121.341 152.629 121.52 152.364 121.761C152.098 122.002 151.579 122.052 151.385 121.761C151.192 121.47 151.536 121.027 151.868 120.781C150.902 120.607 149.96 121.727 149.066 121.341C148.798 121.177 148.612 120.922 148.547 120.631C148.483 120.34 148.545 120.038 148.722 119.79C149.111 119.309 149.658 118.958 150.28 118.787C150.899 118.62 151.477 118.345 151.983 117.975C152.225 117.757 152.418 117.415 152.237 117.141C151.935 116.693 150.981 117.034 150.721 116.581C150.546 116.262 150.878 115.914 151.186 115.69C152.279 114.873 153.783 113.736 154.882 112.918C154.882 112.89 156.398 118.003 156.441 119.918Z" fill="white"/>
<g opacity="0.3">
<path d="M114.354 138.006C123.112 133.577 130.928 126.442 135.168 118.07L114.354 138.006Z" fill="black"/>
</g>
<g opacity="0.3">
<path d="M85.3197 133.476C87.0351 130.06 90.4114 129.125 93.6911 129.164C93.7237 128.987 93.6844 128.804 93.5807 128.652C93.4769 128.5 93.3162 128.389 93.1294 128.341C92.7517 128.246 92.3535 128.246 91.9758 128.341C90.3821 128.554 88.8456 129.042 87.4458 129.78C86.8019 130.165 86.274 130.695 85.9116 131.321C85.5493 131.947 85.3643 132.648 85.3741 133.358" fill="black"/>
</g>
<g opacity="0.3">
<path d="M94.5609 86.1616C96.7881 93.7304 100.251 100.939 104.829 107.537C106.517 105.108 107.235 102.207 106.858 99.3384C108.128 100.869 109.87 102.006 111.853 102.598C109.528 99.6352 107.112 96.8184 104.092 94.4608C104.092 94.4608 103.832 103.981 103.838 103.718C100.679 97.832 97.6051 92.036 94.5488 86.1616" fill="black"/>
</g>
<path d="M121.173 59.7296C120.273 62.4456 118.993 64.5344 116.154 65.604C113.671 66.5392 110.863 66.36 108.242 65.8616C99.7191 64.232 90.7738 60.0208 86.2499 53.1328L88.6659 48.2496C91.2208 44.5256 97.4662 40.1128 104.714 42.2968C106.675 41.777 108.746 41.7272 110.733 42.1523C112.72 42.5774 114.558 43.4634 116.075 44.7272C121.632 49.112 121.173 59.7296 121.173 59.7296Z" fill="#263238"/>
<path d="M100.698 46.0152C95.7206 45.4552 89.294 51.0552 88.8833 55.6976C88.4243 60.8496 88.086 67.1552 88.6598 71.0136C89.8256 78.7752 96.2038 79.8728 96.2038 79.8728L95.8958 83.8208L114.958 80.4272L115.779 52.7464L115.882 50.2488L100.698 46.0152Z" fill="#967262"/>
<path d="M91.9818 61.2864C91.9735 61.5447 92.0743 61.7957 92.2627 61.9861C92.4511 62.1765 92.7123 62.2911 92.9905 62.3056C93.1269 62.3187 93.2647 62.3063 93.3958 62.2692C93.5269 62.2322 93.6487 62.1711 93.754 62.0897C93.8593 62.0083 93.9459 61.9081 94.0087 61.7952C94.0716 61.6822 94.1094 61.5587 94.12 61.432C94.1283 61.1737 94.0275 60.9227 93.8391 60.7323C93.6507 60.5419 93.3895 60.4273 93.1113 60.4128C92.9749 60.3997 92.8371 60.4121 92.706 60.4492C92.5749 60.4862 92.4531 60.5473 92.3478 60.6287C92.2425 60.7101 92.1559 60.8103 92.0931 60.9232C92.0302 61.0362 91.9924 61.1597 91.9818 61.2864Z" fill="#263238"/>
<path d="M90.5805 59.0184C90.7074 59.1472 91.5288 58.6096 92.6825 58.632C93.8361 58.6544 94.6696 59.192 94.7965 59.0744C94.9233 58.9568 94.73 58.7832 94.3676 58.5144C93.8736 58.1871 93.2836 58.0074 92.6764 57.9992C92.0773 57.9881 91.4896 58.1527 90.9973 58.4696C90.6409 58.7272 90.496 58.9568 90.5805 59.0184Z" fill="#263238"/>
<path d="M102.733 61.6728C102.726 61.9307 102.828 62.1809 103.016 62.371C103.204 62.5611 103.464 62.6761 103.742 62.692C103.878 62.7043 104.015 62.6913 104.145 62.6539C104.276 62.6165 104.397 62.5553 104.501 62.4739C104.606 62.3926 104.692 62.2927 104.754 62.1801C104.817 62.0676 104.855 61.9446 104.865 61.8184C104.874 61.5596 104.773 61.3079 104.585 61.1166C104.396 60.9253 104.135 60.8095 103.856 60.7936C103.72 60.7813 103.582 60.7945 103.452 60.8323C103.321 60.87 103.2 60.9317 103.095 61.0137C102.99 61.0956 102.904 61.1961 102.842 61.3093C102.78 61.4225 102.743 61.5461 102.733 61.6728Z" fill="#263238"/>
<path d="M101.893 59.4216C102.026 59.5504 102.848 59.0128 104.001 59.0352C105.155 59.0576 105.983 59.5952 106.109 59.4776C106.236 59.36 106.043 59.1864 105.681 58.9176C105.189 58.5904 104.601 58.4107 103.995 58.4024C103.396 58.3902 102.808 58.5549 102.316 58.8728C101.972 59.1304 101.833 59.36 101.893 59.4216Z" fill="#263238"/>
<path d="M97.5507 67.2616C96.9454 67.0796 96.3189 66.9649 95.6844 66.92C95.3944 66.8864 95.1166 66.8248 95.0804 66.64C95.0612 66.3568 95.1371 66.0751 95.2978 65.8336C95.5877 65.1784 95.9018 64.4896 96.2098 63.7728C97.4782 60.8384 98.4024 58.4248 98.2755 58.38C98.1487 58.3352 97.0132 60.6704 95.7448 63.6048C95.4367 64.3272 95.1408 65.0216 94.869 65.6824C94.6739 66.0058 94.6117 66.3838 94.6938 66.7464C94.7331 66.8445 94.7968 66.9326 94.8797 67.0036C94.9626 67.0747 95.0624 67.1266 95.171 67.1552C95.3322 67.1983 95.4985 67.2228 95.6662 67.228C96.2903 67.3138 96.9236 67.3251 97.5507 67.2616Z" fill="#263238"/>
<path d="M96.2038 79.8952C100.224 80.0257 104.206 79.137 107.722 77.3248C107.722 77.3248 104.672 82.6672 96.0528 81.8048L96.2038 79.8952Z" fill="#77574A"/>
<path d="M97.9856 69.8488C98.2086 69.596 98.4979 69.4004 98.8257 69.2808C99.1535 69.1612 99.5089 69.1215 99.858 69.1656C100.111 69.1905 100.357 69.2629 100.579 69.3784C100.801 69.494 100.996 69.6502 101.151 69.8376C101.301 70.0187 101.388 70.2381 101.4 70.4663C101.411 70.6946 101.348 70.9207 101.217 71.1144C101.028 71.3026 100.783 71.4342 100.513 71.4921C100.242 71.5499 99.9598 71.5315 99.701 71.4392C99.1595 71.2533 98.6643 70.9676 98.2453 70.5992C98.119 70.5113 98.0106 70.4032 97.9252 70.28C97.8821 70.2214 97.859 70.1521 97.859 70.0812C97.859 70.0103 97.8821 69.941 97.9252 69.8824" fill="#77574A"/>
<path d="M100.921 68.0624C100.734 68.0624 100.71 69.1824 99.6225 70.0112C98.5353 70.84 97.2065 70.6664 97.2065 70.8288C97.2065 70.896 97.4964 71.0584 98.0581 71.0808C98.7919 71.1044 99.5109 70.8862 100.088 70.4648C100.64 70.0619 101.002 69.4754 101.096 68.8296C101.145 68.348 101.012 68.0568 100.921 68.0624Z" fill="#263238"/>
<path d="M101.688 55.2328C101.791 55.524 102.944 55.4064 104.291 55.58C105.638 55.7536 106.707 56.14 106.913 55.86C106.997 55.7368 106.81 55.4624 106.375 55.1712C105.796 54.8119 105.134 54.5836 104.442 54.5048C103.753 54.4155 103.051 54.4808 102.395 54.6952C101.893 54.88 101.64 55.0928 101.688 55.2328Z" fill="#263238"/>
<path d="M91.1 55.9328C91.2933 56.1792 92.0966 55.9328 93.0449 55.9328C93.9932 55.9328 94.8086 56.1288 94.9958 55.8768C95.0804 55.7536 94.9596 55.5128 94.6093 55.272C94.1445 54.9812 93.5933 54.8324 93.0328 54.8464C92.4731 54.8482 91.9273 55.0084 91.4685 55.3056C91.1 55.5688 90.9792 55.8152 91.1 55.9328Z" fill="#263238"/>
<path d="M115.109 49.476C114.439 48.1712 112.79 47.6336 111.328 47.1408C109.262 46.4464 107.257 45.5896 105.149 45.0184C103.052 44.371 100.809 44.2455 98.644 44.6544C96.4394 45.1472 94.5307 46.4184 92.8456 47.824C90.6228 49.6776 88.6176 51.9512 88.0498 54.6728V55.608C92.8395 54.348 97.6051 49.7056 101.072 46.396C104.062 50.26 109.039 57.12 113.448 58.8C113.744 56.8232 115.26 53.956 115.429 51.968C115.549 51.1256 115.439 50.2688 115.109 49.476Z" fill="#263238"/>
<path d="M131.218 80.724C130.892 79.1784 129.243 78.2432 127.799 77.4144C126.355 76.5856 124.809 75.3984 124.894 73.8248C124.978 72.2512 126.869 70.896 126.706 69.2552C126.543 67.6144 124.35 66.7408 123.184 65.3912C121.493 63.4424 121.167 62.2272 121.167 59.7296C121.167 54.8408 119.059 48.4568 114.414 46.1272L108.35 50.848C110.114 55.412 111.902 60.1832 111.286 65.0048C110.917 67.8608 109.709 70.6384 109.884 73.5112C110.072 76.5968 111.829 79.408 112.427 82.4432C112.995 85.3216 112.506 88.284 112.663 91.2072C112.82 94.1304 113.871 97.2888 116.54 98.84L126.621 94.36C127.714 93.8728 128.947 93.24 129.104 92.12C129.261 91 128.192 90.0144 127.896 88.8944C127.171 85.9656 131.834 83.6696 131.218 80.724Z" fill="#263238"/>
<path d="M121.004 56.8344C120.525 57.0356 120.025 57.1895 119.512 57.2936C118.285 57.6139 117.026 57.8221 115.755 57.9152C114.477 57.988 113.194 57.8592 111.962 57.5344C111.446 57.4246 110.949 57.2454 110.488 57.0024C110.519 56.8848 112.79 57.8088 115.737 57.624C116.99 57.5213 118.234 57.3341 119.458 57.064C119.964 56.943 120.482 56.8661 121.004 56.8344Z" fill="#455A64"/>
<path d="M121.197 58.632C120.784 58.9237 120.326 59.1559 119.838 59.3208C118.68 59.773 117.441 60.02 116.184 60.0488C114.93 60.0587 113.681 59.9003 112.476 59.5784C111.972 59.4728 111.485 59.3091 111.026 59.0912C111.534 59.1519 112.037 59.2474 112.53 59.3768C113.718 59.6344 114.934 59.7622 116.154 59.7576C117.376 59.7252 118.585 59.5135 119.736 59.1304C120.213 58.9402 120.701 58.7739 121.197 58.632Z" fill="#455A64"/>
<path d="M85.7848 55.7368C86.3153 55.6667 86.8497 55.6255 87.3854 55.6136C87.9115 55.5064 88.4439 55.4279 88.98 55.3784C88.5131 55.6623 87.9819 55.8423 87.4276 55.9045C86.8734 55.9667 86.3112 55.9093 85.7848 55.7368Z" fill="#455A64"/>
<path d="M85.4828 56.6216C85.5371 56.5544 86.1774 56.9632 87.0653 57.2432C87.9532 57.5232 88.7263 57.5736 88.7263 57.6632C88.1372 57.7968 87.5169 57.7456 86.9626 57.5176C86.3747 57.3817 85.8533 57.0661 85.4828 56.6216Z" fill="#455A64"/>
<path d="M113.72 95.0824C113.57 95.0624 113.423 95.0229 113.285 94.9648C112.874 94.8045 112.505 94.5638 112.204 94.2592C111.722 93.7747 111.407 93.1685 111.298 92.5176C111.232 92.1072 111.265 91.6883 111.394 91.2912C111.546 90.8563 111.759 90.442 112.029 90.0592C112.319 89.6524 112.58 89.2277 112.808 88.788C113.028 88.3098 113.145 87.796 113.152 87.276C113.108 86.1132 112.735 84.9815 112.071 83.9944C111.312 82.9025 110.49 81.85 109.607 80.8416C108.636 79.7339 107.967 78.4259 107.656 77.028C107.426 75.6187 107.517 74.1806 107.921 72.8056C108.291 71.5396 108.765 70.3021 109.341 69.104C109.86 67.956 110.368 66.864 110.748 65.828C111.115 64.8644 111.372 63.8678 111.515 62.8544C111.763 61.3909 111.666 59.8951 111.231 58.4696C111.052 57.9531 110.803 57.46 110.488 57.0024C110.596 57.102 110.692 57.2129 110.772 57.3328C111.023 57.6814 111.226 58.0576 111.376 58.4528C111.862 59.8896 111.994 61.4089 111.763 62.8992C111.632 63.9288 111.383 64.9425 111.02 65.9232C110.645 66.9816 110.144 68.0736 109.631 69.2272C109.068 70.4147 108.605 71.6411 108.248 72.8952C107.855 74.2301 107.766 75.6261 107.988 76.9944C108.291 78.3487 108.939 79.616 109.878 80.6904C110.765 81.709 111.59 82.7728 112.349 83.8768C113.03 84.9086 113.405 86.089 113.436 87.2984C113.423 87.8484 113.294 88.3908 113.055 88.8944C112.814 89.3324 112.541 89.7551 112.24 90.16C111.977 90.5264 111.764 90.9214 111.606 91.336C111.486 91.6982 111.449 92.0797 111.497 92.456C111.588 93.0784 111.874 93.6624 112.319 94.136C112.696 94.5519 113.177 94.8767 113.72 95.0824Z" fill="#263238"/>
<path d="M105.034 42.2128C104.137 42.5879 103.319 43.1074 102.618 43.7472C101.992 44.4473 101.501 45.2432 101.169 46.0992C101.134 45.8211 101.177 45.5393 101.296 45.2816C101.52 44.6376 101.892 44.0463 102.386 43.5484C102.88 43.0506 103.485 42.6579 104.158 42.3976C104.428 42.2672 104.73 42.2035 105.034 42.2128Z" fill="#455A64"/>
<path d="M137.04 94.8528L132.927 88.844L132.643 82.936L134.256 78.8928C134.256 78.8928 135.542 78.6072 135.754 80.0128C135.83 81.0811 135.668 82.1526 135.277 83.16L136.158 86.0272C136.158 86.0272 136.448 86.3352 136.72 85.1424C136.992 83.9496 136.521 75.1072 136.515 74.5024C136.509 73.8976 136.563 72.4472 137.536 72.5816C138.508 72.716 138.816 73.92 138.816 74.5304C138.816 75.1408 139.529 81.0768 139.529 81.0768C139.529 81.0768 139.758 81.6088 139.988 81.5304C140.217 81.452 139.782 75.1632 139.74 74.172C139.698 73.1808 139.456 70.9744 140.713 70.9744C141.969 70.9744 141.969 72.0944 142.041 73.2928C142.114 74.4912 142.929 81.3176 142.929 81.3176C142.929 81.3176 143.123 81.7432 143.304 81.172C143.485 80.6008 143.708 73.1976 143.847 72.8504C143.986 72.5032 144.723 72.044 145.291 72.884C145.859 73.724 145.726 75.684 145.647 79.128C145.575 82.236 145.472 83.524 145.853 83.7704C146.233 84.0168 147.665 82.0904 147.665 82.0904C147.665 82.0904 149.38 77.9912 150.836 78.1368C152.291 78.2824 151.313 79.3296 151.065 80.2816C150.854 81.088 148.311 85.8816 148.257 85.9432C148.202 86.0048 145.702 94.5448 145.702 94.5448L151.222 104.328C152.2 106.029 152.574 107.973 152.291 109.883C151.959 111.972 150.805 114.302 147.502 115.254C145.086 115.959 143.274 114.951 142.066 113.764C141.043 112.711 140.366 111.41 140.115 110.012C139.408 106.238 137.028 94.8416 137.028 94.8416L137.04 94.8528Z" fill="#967262"/>
<path d="M141.147 90.5408C141.093 90.5408 141.147 90.0816 141.015 89.3872C140.835 88.4805 140.369 87.644 139.674 86.9848C139.125 86.4478 138.393 86.1019 137.602 86.0048C137.108 85.9505 136.609 86.0553 136.189 86.3016L136.128 86.3352V86.2848C136.05 86.128 136.013 86.0384 136.032 86.0328C136.05 86.0272 136.11 86.0888 136.225 86.2344H136.14C136.346 86.0703 136.585 85.9461 136.843 85.8692C137.102 85.7922 137.374 85.7641 137.644 85.7864C138.512 85.849 139.323 86.2083 139.921 86.7944C140.664 87.4917 141.135 88.3978 141.262 89.3704C141.331 89.7633 141.291 90.1658 141.147 90.5408Z" fill="#77574A"/>
<path d="M144.62 85.9992C144.675 86.072 144.119 86.5144 143.576 87.1696C143.282 87.5972 142.959 88.0069 142.609 88.396C142.735 87.8845 142.98 87.4048 143.328 86.9907C143.675 86.5766 144.117 86.2382 144.62 85.9992Z" fill="#77574A"/>
<path d="M88.8109 139.496C88.8877 141.992 89.9344 144.379 91.7584 146.216C93.1107 147.575 94.5381 148.869 96.0347 150.091L106.436 154.414C106.436 154.414 109.148 154.795 111.872 152.337C112.744 151.63 113.461 150.774 113.986 149.817C113.986 149.817 117.102 151.11 118.322 151.06C120.376 150.976 120.05 149.632 120.05 149.632C120.05 149.632 113.182 146.126 111.551 144.771C109.921 143.416 105.222 142.531 101.887 142.929L99.9547 142.576L99.254 140.168C99.254 140.168 95.4851 134.966 92.006 136.808C88.527 138.65 88.8109 139.496 88.8109 139.496Z" fill="#967262"/>
</svg>
