<svg width="211" height="211" viewBox="0 0 211 211" fill="none" xmlns="http://www.w3.org/2000/svg">
<path d="M173.834 183.903C180.553 179.139 186.056 172.846 189.895 165.538C213.902 120.346 208.48 53.708 162.246 25.1259C140.877 11.9173 110.12 3.55747 87.02 17.1205C68.288 28.1263 56.8052 48.8423 47.3048 67.6888C41.3366 79.5428 36.4184 92.2998 29.06 103.39C19.5176 117.772 9.0134 136.981 19.6184 153.692C34.0706 176.455 61.3664 186.849 86.117 193.694C112.972 201.117 143.17 202.168 167.975 187.689C169.983 186.516 171.936 185.254 173.834 183.903Z" fill="#EF476F"/>
<path opacity="0.7" d="M173.834 183.903C180.553 179.139 186.056 172.846 189.895 165.538C213.902 120.346 208.48 53.708 162.246 25.1259C140.877 11.9173 110.12 3.55747 87.02 17.1205C68.288 28.1263 56.8052 48.8423 47.3048 67.6888C41.3366 79.5428 36.4184 92.2998 29.06 103.39C19.5176 117.772 9.0134 136.981 19.6184 153.692C34.0706 176.455 61.3664 186.849 86.117 193.694C112.972 201.117 143.17 202.168 167.975 187.689C169.983 186.516 171.936 185.254 173.834 183.903Z" fill="white"/>
<g opacity="0.3">
<path d="M95.6552 24.6743V178.928H145.526V24.6743H95.6552ZM143.014 28.101V50.889H122.258V28.101H143.014ZM119.154 28.101V50.889H98.1542V28.101H119.154ZM98.1542 54.4802H119.154V77.0699H98.1542V54.4802ZM143.014 175.501H98.1668V80.9734H143.014V175.501ZM122.258 77.0699V54.4802H143.014V77.0699H122.258Z" stroke="black" stroke-linecap="round" stroke-linejoin="round"/>
<path d="M145.333 24.6743V178.928H195.199V24.6743H145.333ZM192.692 28.101V50.889H171.936V28.101H192.692ZM168.832 28.101V50.889H147.832V28.101H168.832ZM147.832 54.4802H168.832V77.0699H147.832V54.4802ZM192.692 175.501H147.844V80.9734H192.692V175.501ZM171.936 77.0699V54.4802H192.692V77.0699H171.936Z" stroke="black" stroke-linecap="round" stroke-linejoin="round"/>
<path d="M131.851 106.593L119.331 122.249" stroke="black" stroke-linecap="round" stroke-linejoin="round"/>
<path d="M134.959 102.706L132.968 105.196" stroke="black" stroke-linecap="round" stroke-linejoin="round"/>
<path d="M105.718 133.664L103.152 136.694" stroke="black" stroke-linecap="round" stroke-linejoin="round"/>
<path d="M122.346 114.037L107.638 131.398" stroke="black" stroke-linecap="round" stroke-linejoin="round"/>
<path d="M182.297 111.374L169.777 127.03" stroke="black" stroke-linecap="round" stroke-linejoin="round"/>
<path d="M185.405 107.488L183.414 109.973" stroke="black" stroke-linecap="round" stroke-linejoin="round"/>
<path d="M156.165 138.446L153.603 141.475" stroke="black" stroke-linecap="round" stroke-linejoin="round"/>
<path d="M172.792 118.814L158.084 136.179" stroke="black" stroke-linecap="round" stroke-linejoin="round"/>
<path d="M188.08 31.6795L182.087 39.1743" stroke="black" stroke-linecap="round" stroke-linejoin="round"/>
<path d="M189.567 29.8185L188.614 31.0128" stroke="black" stroke-linecap="round" stroke-linejoin="round"/>
<path d="M175.573 44.6392L174.342 46.0866" stroke="black" stroke-linecap="round" stroke-linejoin="round"/>
<path d="M183.532 35.2412L176.488 43.5546" stroke="black" stroke-linecap="round" stroke-linejoin="round"/>
<path d="M164.695 31.6795L158.701 39.1743" stroke="black" stroke-linecap="round" stroke-linejoin="round"/>
<path d="M166.182 29.8185L165.228 31.0128" stroke="black" stroke-linecap="round" stroke-linejoin="round"/>
<path d="M152.187 44.6392L150.961 46.0866" stroke="black" stroke-linecap="round" stroke-linejoin="round"/>
<path d="M160.146 35.2412L153.107 43.5546" stroke="black" stroke-linecap="round" stroke-linejoin="round"/>
<path d="M164.695 59.7552L158.701 67.2499" stroke="black" stroke-linecap="round" stroke-linejoin="round"/>
<path d="M166.182 57.8942L165.228 59.0885" stroke="black" stroke-linecap="round" stroke-linejoin="round"/>
<path d="M152.187 72.7148L150.961 74.1623" stroke="black" stroke-linecap="round" stroke-linejoin="round"/>
<path d="M160.146 63.3169L153.107 71.6303" stroke="black" stroke-linecap="round" stroke-linejoin="round"/>
<path d="M185.552 59.7552L179.559 67.2499" stroke="black" stroke-linecap="round" stroke-linejoin="round"/>
<path d="M187.039 57.8942L186.085 59.0885" stroke="black" stroke-linecap="round" stroke-linejoin="round"/>
<path d="M173.044 72.7148L171.818 74.1623" stroke="black" stroke-linecap="round" stroke-linejoin="round"/>
<path d="M181.003 63.3169L173.964 71.6303" stroke="black" stroke-linecap="round" stroke-linejoin="round"/>
<path d="M138.781 31.6795L132.787 39.1743" stroke="black" stroke-linecap="round" stroke-linejoin="round"/>
<path d="M140.268 29.8185L139.314 31.0128" stroke="black" stroke-linecap="round" stroke-linejoin="round"/>
<path d="M126.273 44.6392L125.047 46.0866" stroke="black" stroke-linecap="round" stroke-linejoin="round"/>
<path d="M134.232 35.2412L127.193 43.5546" stroke="black" stroke-linecap="round" stroke-linejoin="round"/>
<path d="M138.781 59.1011L132.787 66.5958" stroke="black" stroke-linecap="round" stroke-linejoin="round"/>
<path d="M140.268 57.2443L139.314 58.4343" stroke="black" stroke-linecap="round" stroke-linejoin="round"/>
<path d="M126.273 72.0607L125.047 73.5124" stroke="black" stroke-linecap="round" stroke-linejoin="round"/>
<path d="M134.232 62.667L127.193 70.9762" stroke="black" stroke-linecap="round" stroke-linejoin="round"/>
<path d="M116.029 59.1011L110.036 66.5958" stroke="black" stroke-linecap="round" stroke-linejoin="round"/>
<path d="M117.516 57.2443L116.563 58.4343" stroke="black" stroke-linecap="round" stroke-linejoin="round"/>
<path d="M103.518 72.0607L102.291 73.5124" stroke="black" stroke-linecap="round" stroke-linejoin="round"/>
<path d="M111.477 62.667L104.437 70.9762" stroke="black" stroke-linecap="round" stroke-linejoin="round"/>
<path d="M114.446 31.6795L108.453 39.1743" stroke="black" stroke-linecap="round" stroke-linejoin="round"/>
<path d="M115.937 29.8185L114.984 31.0128" stroke="black" stroke-linecap="round" stroke-linejoin="round"/>
<path d="M101.938 44.6392L100.712 46.0866" stroke="black" stroke-linecap="round" stroke-linejoin="round"/>
<path d="M109.897 35.2412L102.858 43.5546" stroke="black" stroke-linecap="round" stroke-linejoin="round"/>
</g>
<g opacity="0.3">
<path d="M96.3986 134.774H11.0672" stroke="black" stroke-linecap="round" stroke-linejoin="round"/>
<path d="M200.42 134.774H195.057" stroke="black" stroke-linecap="round" stroke-linejoin="round"/>
</g>
<path d="M161.503 163.314C162.477 163.736 164.863 163.685 164.863 163.685C164.863 163.685 164.35 162.12 164.304 162.023C163.783 160.925 162.129 159.111 160.785 159.292C160.562 159.329 160.349 159.413 160.161 159.537C159.972 159.662 159.812 159.825 159.69 160.016C159.569 160.207 159.489 160.422 159.455 160.646C159.421 160.871 159.435 161.099 159.495 161.318C159.718 162.255 160.675 162.951 161.503 163.314Z" fill="#263238"/>
<path d="M162.326 170.252C163.338 170.399 165.463 169.779 165.631 169.728C165.982 170.951 166.413 172.15 166.921 173.315C167.215 173.995 167.53 174.67 167.853 175.345C167.66 175.058 167.484 174.805 167.458 174.771C166.665 173.851 164.594 172.539 163.342 173.083C163.138 173.178 162.955 173.314 162.806 173.484C162.657 173.654 162.546 173.854 162.479 174.07C162.412 174.286 162.391 174.514 162.417 174.739C162.444 174.964 162.517 175.18 162.633 175.375C163.09 176.219 164.199 176.641 165.094 176.767C165.988 176.894 167.824 176.409 168.307 176.269C168.433 176.527 168.559 176.788 168.685 177.042C169.302 178.274 169.924 179.502 170.495 180.721C170.692 181.143 170.877 181.566 171.062 182.017C170.89 181.764 170.743 181.549 170.718 181.519C169.924 180.599 167.853 179.287 166.602 179.831C166.397 179.925 166.214 180.062 166.065 180.232C165.916 180.402 165.805 180.601 165.738 180.818C165.671 181.034 165.65 181.262 165.676 181.487C165.703 181.711 165.776 181.928 165.892 182.123C166.354 182.967 167.458 183.389 168.353 183.515C169.248 183.642 170.907 183.203 171.478 183.042C171.654 183.49 171.831 183.937 171.982 184.38C172.078 184.684 172.192 184.967 172.267 185.279C172.343 185.591 172.44 185.887 172.519 186.186C172.662 186.769 172.809 187.368 172.939 187.942C173.023 188.339 173.099 188.718 173.179 189.102C172.981 188.68 172.582 187.836 172.54 187.769C171.898 186.739 170.046 185.127 168.731 185.465C168.514 185.527 168.313 185.634 168.141 185.78C167.968 185.925 167.828 186.105 167.729 186.308C167.63 186.512 167.574 186.734 167.566 186.96C167.558 187.186 167.597 187.411 167.681 187.621C168.013 188.524 169.042 189.107 169.907 189.372C170.86 189.664 172.969 189.398 173.233 189.372C173.359 190.01 173.477 190.639 173.578 191.208C173.653 191.63 173.725 192.052 173.788 192.474H174.628C174.548 192.031 174.46 191.563 174.363 191.077C174.237 190.436 174.09 189.748 173.943 189.048C174.578 188.791 175.198 188.498 175.8 188.17C176.493 188.925 178.273 189.811 178.504 189.921C178.261 190.52 178.017 191.103 177.782 191.643C177.656 191.934 177.538 192.204 177.417 192.487H178.311C178.383 192.318 178.45 192.149 178.525 191.972C178.773 191.364 179.025 190.706 179.281 190.039C179.533 190.09 181.625 190.516 182.599 190.297C183.481 190.098 184.548 189.596 184.947 188.718C185.047 188.515 185.103 188.293 185.112 188.066C185.12 187.839 185.081 187.613 184.997 187.403C184.913 187.192 184.786 187.002 184.624 186.844C184.462 186.686 184.269 186.564 184.057 186.486C182.772 186.064 180.81 187.52 180.088 188.499C180.046 188.558 179.668 189.237 179.416 189.672C179.517 189.394 179.622 189.128 179.722 188.828C179.928 188.267 180.117 187.701 180.323 187.089C180.411 186.794 180.499 186.49 180.592 186.186C180.684 185.883 180.751 185.562 180.831 185.245C181.008 184.507 181.146 183.747 181.272 182.983C181.764 183.165 183.515 183.777 184.422 183.709C185.329 183.642 186.459 183.313 186.98 182.507C187.109 182.321 187.199 182.111 187.242 181.889C187.285 181.666 187.281 181.438 187.23 181.217C187.18 180.997 187.083 180.789 186.947 180.609C186.812 180.428 186.64 180.278 186.442 180.169C185.237 179.544 183.082 180.696 182.213 181.553C182.158 181.608 181.612 182.291 181.318 182.675C181.39 182.215 181.465 181.755 181.524 181.287C181.692 179.937 181.818 178.561 181.944 177.189C181.986 176.767 182.032 176.345 182.074 175.923C182.251 175.987 184.317 176.767 185.334 176.691C186.232 176.628 187.366 176.295 187.891 175.484C188.021 175.299 188.11 175.088 188.152 174.866C188.195 174.644 188.191 174.415 188.14 174.194C188.089 173.973 187.992 173.766 187.856 173.586C187.72 173.405 187.547 173.256 187.35 173.147C186.144 172.522 183.99 173.674 183.124 174.531C183.057 174.598 182.284 175.586 182.083 175.847C182.179 174.923 182.284 174.007 182.427 173.109C182.608 171.891 182.869 170.687 183.208 169.505C183.288 169.539 185.443 170.349 186.48 170.281C187.383 170.218 188.517 169.885 189.042 169.079C189.179 168.891 189.275 168.676 189.321 168.448C189.368 168.22 189.365 167.984 189.313 167.757C189.261 167.531 189.16 167.318 189.019 167.134C188.877 166.949 188.697 166.798 188.492 166.69C187.287 166.065 185.132 167.218 184.263 168.078C184.195 168.146 183.351 169.209 183.213 169.412C183.234 169.344 183.246 169.268 183.267 169.201C183.639 168.026 184.114 166.886 184.687 165.795C184.993 165.188 185.325 164.626 185.657 164.086C186.043 164.276 187.812 165.141 188.757 165.179C189.702 165.217 190.823 165.01 191.432 164.264C191.58 164.093 191.692 163.893 191.758 163.677C191.825 163.461 191.846 163.233 191.819 163.008C191.793 162.784 191.719 162.567 191.604 162.372C191.489 162.178 191.335 162.01 191.151 161.879C190.021 161.124 187.744 162.031 186.795 162.791C186.745 162.833 186.266 163.31 185.926 163.664C186.077 163.424 186.232 163.171 186.384 162.943C186.951 162.099 187.522 161.331 188.038 160.668C188.332 160.297 188.605 159.963 188.878 159.655C189.353 159.655 191.272 159.588 192.112 159.191C192.952 158.794 193.868 158.085 194.07 157.144C194.123 156.924 194.131 156.695 194.091 156.472C194.051 156.249 193.965 156.037 193.838 155.85C193.711 155.662 193.547 155.504 193.355 155.384C193.164 155.265 192.949 155.187 192.726 155.157C191.373 155.009 189.786 156.866 189.277 157.98C189.235 158.077 188.74 159.668 188.765 159.668H188.794C188.538 159.959 188.269 160.276 187.98 160.626C187.455 161.28 186.862 162.018 186.274 162.871C185.629 163.779 185.037 164.725 184.502 165.703C183.899 166.795 183.393 167.939 182.99 169.121C182.99 169.121 182.99 169.15 182.99 169.167C182.99 168.766 182.99 167.648 182.965 167.564C182.809 166.357 181.801 164.112 180.47 163.867C180.245 163.826 180.013 163.833 179.791 163.89C179.569 163.946 179.361 164.049 179.182 164.193C179.003 164.336 178.857 164.517 178.753 164.722C178.649 164.927 178.59 165.152 178.58 165.382C178.5 166.344 179.193 167.302 179.869 167.914C180.63 168.597 182.742 169.26 182.91 169.311C182.529 170.524 182.232 171.762 182.02 173.016C181.89 173.746 181.78 174.484 181.68 175.227C181.68 174.881 181.68 174.573 181.68 174.527C181.524 173.32 180.516 171.079 179.181 170.83C178.958 170.795 178.73 170.808 178.513 170.868C178.295 170.927 178.093 171.032 177.918 171.175C177.743 171.318 177.6 171.497 177.499 171.699C177.397 171.901 177.339 172.123 177.328 172.349C177.253 173.307 177.946 174.269 178.618 174.881C179.29 175.493 181.096 176.096 181.558 176.248C181.524 176.531 181.486 176.818 181.453 177.092C181.289 178.464 181.134 179.827 180.936 181.165C180.869 181.633 180.785 182.097 180.701 182.557C180.701 182.249 180.701 181.992 180.701 181.954C180.546 180.747 179.538 178.502 178.206 178.257C177.983 178.222 177.756 178.234 177.538 178.293C177.32 178.352 177.117 178.456 176.942 178.599C176.767 178.742 176.624 178.92 176.522 179.122C176.42 179.324 176.361 179.546 176.35 179.772C176.274 180.734 176.967 181.692 177.643 182.304C178.32 182.916 179.945 183.46 180.508 183.642C180.407 184.114 180.31 184.583 180.193 185.034C180.105 185.342 180.046 185.642 179.941 185.946L179.651 186.84C179.449 187.406 179.231 187.988 179.029 188.528C178.882 188.908 178.74 189.267 178.609 189.63C178.681 189.161 178.807 188.242 178.811 188.166C178.795 187.093 178.506 186.043 177.971 185.115C177.976 184.996 177.969 184.877 177.95 184.76C177.922 184.535 177.847 184.318 177.73 184.124C177.613 183.93 177.457 183.763 177.271 183.634C177.086 183.505 176.876 183.416 176.654 183.374C176.432 183.331 176.204 183.336 175.984 183.389C174.674 183.739 173.842 186.056 173.779 187.271C173.779 187.343 173.826 188.115 173.863 188.617C173.796 188.33 173.733 188.052 173.662 187.773C173.527 187.191 173.372 186.613 173.208 185.992C173.12 185.693 173.028 185.393 172.935 185.089C172.843 184.785 172.725 184.477 172.62 184.169C172.36 183.456 172.062 182.747 171.747 182.038C172.255 181.916 174.052 181.456 174.775 180.899C175.497 180.342 176.253 179.439 176.245 178.476C176.252 178.25 176.211 178.025 176.124 177.815C176.038 177.606 175.909 177.417 175.745 177.261C175.582 177.105 175.387 176.986 175.174 176.911C174.961 176.836 174.735 176.807 174.51 176.826C173.162 176.97 171.99 179.131 171.747 180.325C171.747 180.401 171.65 181.274 171.616 181.755C171.423 181.333 171.234 180.911 171.024 180.489C170.419 179.27 169.764 178.054 169.13 176.835C168.933 176.464 168.744 176.092 168.55 175.717C168.731 175.674 170.877 175.176 171.688 174.552C172.406 173.999 173.166 173.092 173.158 172.13C173.165 171.903 173.124 171.678 173.037 171.468C172.951 171.259 172.822 171.07 172.658 170.914C172.495 170.758 172.3 170.639 172.087 170.564C171.874 170.489 171.648 170.46 171.423 170.48C170.075 170.623 168.903 172.784 168.66 173.978C168.66 174.067 168.529 175.328 168.513 175.666C168.093 174.843 167.673 174.02 167.295 173.193C166.78 172.076 166.338 170.928 165.972 169.754C166.056 169.754 168.298 169.222 169.126 168.585C169.844 168.032 170.608 167.125 170.6 166.163C170.606 165.936 170.565 165.711 170.478 165.502C170.392 165.293 170.263 165.104 170.099 164.949C169.936 164.793 169.741 164.674 169.529 164.598C169.316 164.523 169.09 164.494 168.865 164.512C167.517 164.656 166.345 166.817 166.102 168.011C166.081 168.104 165.959 169.458 165.955 169.699C165.934 169.631 165.904 169.564 165.883 169.496C165.548 168.308 165.319 167.092 165.199 165.863C165.123 165.188 165.09 164.538 165.069 163.901C165.489 163.85 167.446 163.588 168.256 163.095C169.067 162.601 169.886 161.807 169.983 160.85C170.014 160.625 169.998 160.397 169.935 160.179C169.873 159.962 169.765 159.76 169.62 159.587C169.474 159.414 169.294 159.274 169.091 159.176C168.888 159.078 168.666 159.024 168.441 159.018C167.085 159.018 165.682 161.031 165.308 162.191C165.308 162.255 165.153 162.917 165.06 163.403C165.06 163.116 165.06 162.82 165.06 162.559C165.06 161.525 165.127 160.584 165.19 159.744C165.232 159.271 165.279 158.841 165.325 158.44C165.715 158.17 167.286 157.056 167.769 156.262C168.252 155.469 168.609 154.363 168.273 153.469C168.198 153.255 168.078 153.061 167.923 152.897C167.767 152.733 167.579 152.604 167.371 152.518C167.163 152.432 166.939 152.391 166.713 152.398C166.488 152.404 166.267 152.459 166.064 152.557C164.859 153.182 164.539 155.621 164.741 156.824C164.741 156.925 165.211 158.512 165.232 158.512H165.258C165.203 158.896 165.153 159.309 165.102 159.778C165.022 160.622 164.934 161.563 164.913 162.597C164.873 163.711 164.898 164.827 164.989 165.939C165.085 167.186 165.292 168.421 165.606 169.631V169.674C165.392 169.336 164.766 168.408 164.707 168.348C163.914 167.428 161.843 166.116 160.591 166.66C160.386 166.755 160.204 166.892 160.055 167.063C159.906 167.233 159.794 167.433 159.727 167.649C159.66 167.866 159.64 168.094 159.666 168.319C159.693 168.544 159.766 168.761 159.882 168.956C160.327 169.703 161.431 170.117 162.326 170.252Z" fill="#263238"/>
<path d="M185.602 163.841C185.602 163.841 186.022 162.251 186.048 162.153C186.216 160.947 185.833 158.516 184.611 157.933C184.406 157.84 184.183 157.791 183.958 157.79C183.732 157.789 183.509 157.836 183.303 157.927C183.097 158.019 182.912 158.153 182.761 158.322C182.61 158.49 182.496 158.688 182.427 158.904C182.1 159.807 182.511 160.917 183.007 161.681C183.582 162.567 185.598 163.841 185.602 163.841Z" fill="#263238"/>
<path d="M80.132 69.7313V78.3401H83.4668L89.0234 69.4063L80.132 69.7313Z" fill="#B2B2B2" stroke="#B2B2B2" stroke-linecap="round" stroke-linejoin="round"/>
<path d="M89.0234 69.4063L85.2392 69.5456L80.132 78.3401H83.4668L89.0234 69.4063Z" fill="white" stroke="#B2B2B2" stroke-linecap="round" stroke-linejoin="round"/>
<path d="M91.3838 68.1066H27.7412V70.2166H91.3838V68.1066Z" fill="white" stroke="#B2B2B2" stroke-linecap="round" stroke-linejoin="round"/>
<path d="M18.4802 69.7313V78.3401H21.8108L27.3674 69.4063L18.4802 69.7313Z" fill="#B2B2B2" stroke="#B2B2B2" stroke-linecap="round" stroke-linejoin="round"/>
<path d="M27.3674 69.4063L23.5832 69.5456L18.4802 78.3401H21.8108L27.3674 69.4063Z" fill="white" stroke="#B2B2B2" stroke-linecap="round" stroke-linejoin="round"/>
<path d="M39.3332 68.1066H15.1538V70.2166H39.3332V68.1066Z" fill="#B2B2B2" stroke="#B2B2B2" stroke-linecap="round" stroke-linejoin="round"/>
<path d="M44.7722 68.1192H30.3788L26.729 47.0319H47.9642L44.7722 68.1192Z" fill="#B2B2B2" stroke="#B2B2B2" stroke-linecap="round" stroke-linejoin="round"/>
<path d="M47.0948 47.0023C47.0948 47.0023 50.7362 50.3151 50.2154 59.8987C49.6358 70.5837 40.6772 75.9347 40.1354 83.9527C39.5936 91.9707 47.0738 92.494 51.0554 90.0548" stroke="#B2B2B2" stroke-linecap="round" stroke-linejoin="round"/>
<path d="M50.06 63.0341C50.06 63.0341 49.7114 64.9542 50.9294 66.3468C52.1474 67.7394 56.1332 68.9632 56.1332 68.9632C56.1332 68.9632 54.9614 61.0381 50.06 63.0341Z" fill="#EF476F" stroke="#B2B2B2" stroke-linecap="round" stroke-linejoin="round"/>
<path d="M47.4476 69.2502C47.4476 69.2502 46.4732 70.9382 47.141 72.6599C47.8088 74.3817 51.1478 76.8799 51.1478 76.8799C51.1478 76.8799 53.2814 70.5331 47.4476 69.2502Z" fill="#EF476F" stroke="#B2B2B2" stroke-linecap="round" stroke-linejoin="round"/>
<path d="M42.6176 77.2682C42.6176 77.2682 41.6432 78.9562 42.311 80.6779C42.9788 82.3997 46.3178 84.8979 46.3178 84.8979C46.3178 84.8979 48.1364 78.3401 42.6176 77.2682Z" fill="#EF476F" stroke="#B2B2B2" stroke-linecap="round" stroke-linejoin="round"/>
<path d="M50.48 57.4426C50.48 57.4426 50.1314 59.3627 51.3494 60.7553C52.5674 62.1479 56.5532 63.3717 56.5532 63.3717C56.5532 63.3717 55.3184 57.814 50.48 57.4426Z" fill="#EF476F" stroke="#B2B2B2" stroke-linecap="round" stroke-linejoin="round"/>
<path d="M48.3086 67.3934C48.3086 67.3934 45.5324 65.4775 43.4534 66.8701C42.1871 67.747 41.2659 69.0413 40.8494 70.5288C40.8494 70.5288 44.8394 71.9257 48.3086 67.3934Z" fill="#EF476F" stroke="#B2B2B2" stroke-linecap="round" stroke-linejoin="round"/>
<path d="M40.3286 82.3744C40.3286 82.3744 37.5524 80.4585 35.4734 81.8511C34.2071 82.728 33.2859 84.0223 32.8694 85.5098C32.8694 85.5098 36.8594 86.9067 40.3286 82.3744Z" fill="#EF476F" stroke="#B2B2B2" stroke-linecap="round" stroke-linejoin="round"/>
<path d="M41.1812 88.8436C41.1812 88.8436 38.9384 91.3756 40.0514 93.6165C40.7571 94.9894 41.9192 96.0704 43.3358 96.6717C43.3358 96.6717 45.2174 92.8737 41.1812 88.8436Z" fill="#EF476F" stroke="#B2B2B2" stroke-linecap="round" stroke-linejoin="round"/>
<path d="M50.3414 57.5566C49.3299 57.4377 48.308 57.4377 47.2964 57.5566C45.9314 57.7676 43.8314 61.6711 43.8314 61.6711C44.965 61.9869 46.1628 61.9869 47.2964 61.6711C49.1864 61.1436 50.3414 57.5566 50.3414 57.5566Z" fill="#EF476F" stroke="#B2B2B2" stroke-linecap="round" stroke-linejoin="round"/>
<path d="M49.1864 90.6836C49.4039 89.9726 49.7973 89.3287 50.3298 88.8121C50.8624 88.2955 51.5166 87.923 52.2314 87.7296C53.9784 87.2762 55.785 87.0982 57.5864 87.2021C56.6969 88.0742 55.7498 88.8849 54.7514 89.6286C53.1764 90.7891 49.1864 90.6836 49.1864 90.6836Z" fill="#EF476F" stroke="#B2B2B2" stroke-linecap="round" stroke-linejoin="round"/>
<path d="M48.5564 91.2111C49.0951 91.8691 49.7328 92.4386 50.4464 92.8991C51.8114 93.8486 55.4864 92.7936 55.4864 92.7936C53.3035 91.8101 50.9479 91.2722 48.5564 91.2111Z" fill="#EF476F" stroke="#B2B2B2" stroke-linecap="round" stroke-linejoin="round"/>
<path d="M24.6752 48.1713C24.6752 48.1713 22.5542 50.0998 22.8566 55.6787C23.1968 61.899 28.4132 65.0133 28.7366 69.6806C29.06 74.348 24.6752 74.6518 22.34 73.2297" stroke="#B2B2B2" stroke-linecap="round" stroke-linejoin="round"/>
<path d="M22.9574 57.5059C23.0077 57.8449 22.989 58.1906 22.9023 58.5221C22.8157 58.8536 22.663 59.164 22.4534 59.4345C21.7478 60.2447 19.4252 60.9537 19.4252 60.9537C19.4252 60.9537 20.0972 56.3412 22.9574 57.5059Z" fill="#EF476F" stroke="#B2B2B2" stroke-linecap="round" stroke-linejoin="round"/>
<path d="M24.4694 61.1225C24.6314 61.4236 24.7309 61.7547 24.7619 62.0956C24.793 62.4365 24.7549 62.7802 24.65 63.1059C24.2594 64.1144 22.3148 65.5746 22.3148 65.5746C22.3148 65.5746 21.08 61.8694 24.4694 61.1225Z" fill="#EF476F" stroke="#B2B2B2" stroke-linecap="round" stroke-linejoin="round"/>
<path d="M27.2792 65.7898C27.4434 66.0909 27.5442 66.4228 27.5753 66.7647C27.6063 67.1067 27.567 67.4514 27.4598 67.7774C27.0692 68.7818 25.1288 70.2419 25.1288 70.2419C25.1288 70.2419 24.0704 66.4144 27.2792 65.7898Z" fill="#EF476F" stroke="#B2B2B2" stroke-linecap="round" stroke-linejoin="round"/>
<path d="M22.7138 54.2481C22.7641 54.5871 22.7453 54.9328 22.6587 55.2643C22.572 55.5958 22.4193 55.9062 22.2098 56.1766C21.5042 56.9911 19.1816 57.7 19.1816 57.7C19.1816 57.7 19.8872 54.438 22.7138 54.2481Z" fill="#EF476F" stroke="#B2B2B2" stroke-linecap="round" stroke-linejoin="round"/>
<path d="M23.9696 60.0421C23.9696 60.0421 25.5824 58.9238 26.7962 59.7383C27.532 60.2499 28.0668 61.0037 28.3082 61.8694C28.3082 61.8694 25.9898 62.6796 23.9696 60.0421Z" fill="#EF476F" stroke="#B2B2B2" stroke-linecap="round" stroke-linejoin="round"/>
<path d="M28.6148 68.786C28.6148 68.786 30.2276 67.6677 31.4414 68.4779C32.1768 68.9909 32.7126 69.7439 32.9576 70.609C32.9576 70.609 30.635 71.4024 28.6148 68.786Z" fill="#EF476F" stroke="#B2B2B2" stroke-linecap="round" stroke-linejoin="round"/>
<path d="M28.1192 72.5291C28.1192 72.5291 29.4254 73.9977 28.7744 75.3101C28.3631 76.1081 27.6871 76.7366 26.8634 77.0867C26.8634 77.0867 25.7672 74.8754 28.1192 72.5291Z" fill="#EF476F" stroke="#B2B2B2" stroke-linecap="round" stroke-linejoin="round"/>
<path d="M22.7852 54.3156C23.374 54.2467 23.9688 54.2467 24.5576 54.3156C25.3514 54.438 26.5778 56.7126 26.5778 56.7126C25.9169 56.8967 25.2185 56.8967 24.5576 56.7126C23.4572 56.4045 22.7852 54.3156 22.7852 54.3156Z" fill="#EF476F" stroke="#B2B2B2" stroke-linecap="round" stroke-linejoin="round"/>
<path d="M23.4572 73.601C23.3327 73.1863 23.1043 72.8106 22.794 72.5099C22.4837 72.2092 22.1018 71.9935 21.6848 71.8835C20.6682 71.6192 19.6168 71.5152 18.5684 71.5754C19.0938 72.0885 19.6522 72.5664 20.24 73.006C21.1346 73.6643 23.4572 73.601 23.4572 73.601Z" fill="#EF476F" stroke="#B2B2B2" stroke-linecap="round" stroke-linejoin="round"/>
<path d="M23.8268 73.9091C23.5129 74.2921 23.1417 74.6238 22.7264 74.8923C21.9284 75.4451 19.7864 74.829 19.7864 74.829C21.0591 74.2558 22.4326 73.9431 23.8268 73.9091Z" fill="#EF476F" stroke="#B2B2B2" stroke-linecap="round" stroke-linejoin="round"/>
<path d="M30.6182 40.9002C30.6182 40.9002 30.2696 38.288 26.456 37.5917C24.0486 37.1762 21.5936 37.1165 19.169 37.4145C19.169 37.4145 19.3412 39.1574 22.109 40.5542C23.9601 41.4258 25.9515 41.9574 27.989 42.124C27.989 42.124 23.306 42.297 21.7436 43.3436C20.1812 44.3902 17.5814 49.0955 17.5814 49.0955C17.5814 49.0955 20.3576 48.0489 21.3992 47.5256C22.4408 47.0023 23.6546 45.4156 23.6546 45.4156C23.6546 45.4156 22.4408 48.205 22.4408 49.5976C22.4408 50.9902 24.1754 54.3029 24.1754 54.3029C25.0499 53.4348 25.9756 52.6203 26.9474 51.8638C28.3376 50.8172 29.0474 48.3781 29.0474 48.3781C29.0474 48.3781 27.8336 51.1675 29.0474 53.0834C30.2612 54.9992 31.475 56.5691 31.9874 56.5691C32.4998 56.5691 33.3734 51.8638 33.3734 51.8638L33.2012 49.7538C33.2012 49.7538 35.9774 54.4591 37.1912 55.3284C38.405 56.1977 41.702 57.4384 41.702 57.4384L42.2228 52.2098L44.1296 55.3453L46.2296 51.3363L46.574 54.1257C47.2162 53.478 47.7969 52.7716 48.3086 52.0157C48.6574 51.3571 48.8918 50.6435 49.0016 49.9057C49.0016 49.9057 49.871 51.8216 50.3918 52.0157C50.9126 52.2098 53.5124 53.7586 53.5124 53.7586C53.5124 53.7586 53.3402 51.4924 52.9916 50.9691C52.643 50.4459 51.0848 47.6564 51.0848 47.6564L54.7262 49.3993C54.6483 47.9983 54.0253 46.6842 52.9916 45.7406C51.257 44.1707 46.7462 42.9511 46.7462 42.9511C46.7462 42.9511 51.95 42.7781 52.8194 42.6009C53.6888 42.4236 56.4608 40.685 56.4608 40.685C56.4608 40.685 52.9916 38.0728 49.6946 37.5495C46.3976 37.0263 40.505 38.4189 40.505 38.4189C40.505 38.4189 42.7604 36.3089 43.6256 35.4649C44.4908 34.6209 45.5324 32.3294 45.5324 32.3294C45.5324 32.3294 42.2396 33.0257 40.4924 34.2453C38.7452 35.4649 36.8468 38.6045 36.8468 38.6045C35.995 37.4439 35.008 36.3898 33.9068 35.4649C32.3486 34.2453 29.5724 34.0723 29.5724 34.0723C29.5724 34.0723 29.228 38.9843 30.6182 40.9002Z" fill="#EF476F" stroke="#B2B2B2" stroke-linecap="round" stroke-linejoin="round"/>
<path d="M35.8304 43.3689C35.8304 43.3689 33.869 40.2335 30.6182 40.9002C27.3674 41.567 25.4102 45.0063 25.4102 45.0063C25.4102 45.0063 26.7122 46.6394 30.9458 46.6394C35.1794 46.6394 36.158 45.0063 36.158 45.0063" fill="#EF476F"/>
<path d="M35.8304 43.3689C35.8304 43.3689 33.869 40.2335 30.6182 40.9002C27.3674 41.567 25.4102 45.0063 25.4102 45.0063C25.4102 45.0063 26.7122 46.6394 30.9458 46.6394C35.1794 46.6394 36.158 45.0063 36.158 45.0063" stroke="#B2B2B2" stroke-linecap="round" stroke-linejoin="round"/>
<path d="M35.507 42.7148C35.5001 41.0733 35.6082 39.4333 35.8304 37.807C36.158 36.1696 37.9304 34.2073 37.9304 34.2073C37.9304 34.2073 40.715 39.1152 40.4 41.242C40.085 43.3689 38.9342 44.196 38.9342 44.196C39.4613 44.6311 39.8819 45.1818 40.1637 45.8059C40.4455 46.43 40.5809 47.1107 40.5596 47.7957C40.5596 50.2475 37.6196 54.1763 37.6196 54.1763C37.6196 54.1763 35.5196 51.8849 35.8262 48.9393C36.1328 45.9938 37.1282 45.6688 37.1282 45.6688" fill="#EF476F"/>
<path d="M35.507 42.7148C35.5001 41.0733 35.6082 39.4333 35.8304 37.807C36.158 36.1696 37.9304 34.2073 37.9304 34.2073C37.9304 34.2073 40.715 39.1152 40.4 41.242C40.085 43.3689 38.9342 44.196 38.9342 44.196C39.4613 44.6311 39.8819 45.1818 40.1637 45.8059C40.4455 46.43 40.5809 47.1107 40.5596 47.7957C40.5596 50.2475 37.6196 54.1763 37.6196 54.1763C37.6196 54.1763 35.5196 51.8849 35.8262 48.9393C36.1328 45.9938 37.1282 45.6688 37.1282 45.6688" stroke="#B2B2B2" stroke-linecap="round" stroke-linejoin="round"/>
<path d="M40.2278 43.044C40.7752 42.3108 41.4895 41.7201 42.3109 41.3214C43.1322 40.9228 44.0367 40.7277 44.9486 40.7525C48.2078 40.7525 50.9756 44.6771 50.9756 44.6771C50.9756 44.6771 47.5568 45.9853 45.0956 45.9853C43.6287 45.9862 42.1809 45.6514 40.862 45.0063L40.211 44.5126" fill="#EF476F"/>
<path d="M40.2278 43.044C40.7752 42.3108 41.4895 41.7201 42.3109 41.3214C43.1322 40.9228 44.0367 40.7277 44.9486 40.7525C48.2078 40.7525 50.9756 44.6771 50.9756 44.6771C50.9756 44.6771 47.5568 45.9853 45.0956 45.9853C43.6287 45.9862 42.1809 45.6514 40.862 45.0063L40.211 44.5126" stroke="#B2B2B2" stroke-linecap="round" stroke-linejoin="round"/>
<path d="M85.5794 180.24L81.518 192.584H54.449L50.3876 180.24H85.5794Z" stroke="#263238" stroke-linecap="round" stroke-linejoin="round"/>
<path d="M52.9034 180.24C52.9418 178.52 53.6498 176.883 54.8754 175.681C56.101 174.478 57.7467 173.806 59.4596 173.809C60.1595 173.806 60.855 173.92 61.5176 174.147V174.147C62.8022 174.571 63.9246 175.385 64.7307 176.476C65.5368 177.567 65.9872 178.882 66.02 180.24" stroke="#263238" stroke-linecap="round" stroke-linejoin="round"/>
<path d="M83.5508 180.24H70.4384C70.4384 178.493 71.1291 176.818 72.3586 175.582C73.5881 174.347 75.2557 173.653 76.9946 173.653C78.7334 173.653 80.401 174.347 81.6305 175.582C82.86 176.818 83.5508 178.493 83.5508 180.24V180.24Z" stroke="#263238" stroke-linecap="round" stroke-linejoin="round"/>
<path d="M74.0924 174.489C73.7259 173.117 72.9285 171.901 71.8188 171.022C70.7092 170.143 69.3466 169.647 67.9339 169.609C66.5212 169.57 65.134 169.991 63.9786 170.809C62.8233 171.627 61.9616 172.797 61.5218 174.147V174.147" stroke="#263238" stroke-linecap="round" stroke-linejoin="round"/>
<path d="M64.6718 172.265C64.6557 172.364 64.6044 172.455 64.5273 172.52C64.4502 172.585 64.3525 172.62 64.2518 172.619C64.1996 172.629 64.1459 172.627 64.0944 172.614C64.043 172.601 63.9951 172.576 63.9542 172.542C63.9133 172.508 63.8803 172.465 63.8577 172.417C63.8351 172.369 63.8234 172.316 63.8234 172.263C63.8234 172.209 63.8351 172.156 63.8577 172.108C63.8803 172.06 63.9133 172.017 63.9542 171.983C63.9951 171.949 64.043 171.924 64.0944 171.911C64.1459 171.898 64.1996 171.896 64.2518 171.906C64.3531 171.905 64.4514 171.94 64.5286 172.006C64.6057 172.072 64.6566 172.164 64.6718 172.265Z" stroke="#263238" stroke-linecap="round" stroke-linejoin="round"/>
<path d="M64.1552 173.573C64.168 173.658 64.1547 173.745 64.117 173.822C64.0794 173.899 64.0191 173.963 63.9444 174.005C63.8697 174.047 63.784 174.064 63.6988 174.056C63.6137 174.048 63.5331 174.013 63.4679 173.958C63.4027 173.902 63.356 173.828 63.334 173.745C63.3121 173.661 63.3159 173.574 63.3449 173.493C63.374 173.412 63.4269 173.342 63.4967 173.292C63.5664 173.242 63.6496 173.215 63.7352 173.214C63.8365 173.213 63.9348 173.249 64.012 173.315C64.0891 173.38 64.14 173.472 64.1552 173.573Z" stroke="#263238" stroke-linecap="round" stroke-linejoin="round"/>
<path d="M66.4862 171.231C66.471 171.331 66.4201 171.423 66.3429 171.489C66.2658 171.555 66.1675 171.591 66.0662 171.589C66.014 171.599 65.9603 171.598 65.9088 171.584C65.8574 171.571 65.8095 171.546 65.7686 171.512C65.7277 171.478 65.6947 171.436 65.6721 171.387C65.6495 171.339 65.6378 171.286 65.6378 171.233C65.6378 171.179 65.6495 171.127 65.6721 171.078C65.6947 171.03 65.7277 170.987 65.7686 170.953C65.8095 170.919 65.8574 170.895 65.9088 170.881C65.9603 170.868 66.014 170.866 66.0662 170.876C66.1683 170.869 66.2691 170.902 66.3475 170.968C66.4258 171.034 66.4755 171.128 66.4862 171.231V171.231Z" stroke="#263238" stroke-linecap="round" stroke-linejoin="round"/>
<path d="M66.6079 173.096C66.5928 173.197 66.5419 173.288 66.4647 173.354C66.3875 173.42 66.2892 173.456 66.1879 173.455C66.1357 173.465 66.082 173.463 66.0306 173.449C65.9791 173.436 65.9312 173.412 65.8903 173.378C65.8494 173.343 65.8165 173.301 65.7939 173.252C65.7713 173.204 65.7596 173.151 65.7596 173.098C65.7596 173.045 65.7713 172.992 65.7939 172.944C65.8165 172.895 65.8494 172.853 65.8903 172.819C65.9312 172.785 65.9791 172.76 66.0306 172.747C66.082 172.733 66.1357 172.732 66.1879 172.741C66.2886 172.74 66.3864 172.775 66.4635 172.84C66.5406 172.905 66.5918 172.996 66.6079 173.096Z" stroke="#263238" stroke-linecap="round" stroke-linejoin="round"/>
<path d="M56.1794 176.35C56.1642 176.45 56.1133 176.542 56.0361 176.608C55.9589 176.674 55.8607 176.709 55.7594 176.708C55.7072 176.718 55.6534 176.716 55.602 176.703C55.5505 176.69 55.5027 176.665 55.4618 176.631C55.4208 176.597 55.3879 176.554 55.3653 176.506C55.3427 176.458 55.331 176.405 55.331 176.352C55.331 176.298 55.3427 176.246 55.3653 176.197C55.3879 176.149 55.4208 176.106 55.4618 176.072C55.5027 176.038 55.5505 176.014 55.602 176C55.6534 175.987 55.7072 175.985 55.7594 175.995C55.86 175.994 55.9578 176.029 56.0349 176.094C56.112 176.159 56.1633 176.25 56.1794 176.35Z" stroke="#263238" stroke-linecap="round" stroke-linejoin="round"/>
<path d="M55.6628 177.662C55.6756 177.747 55.6623 177.834 55.6246 177.911C55.5869 177.988 55.5267 178.052 55.452 178.094C55.3772 178.136 55.2916 178.154 55.2064 178.145C55.1213 178.137 55.0407 178.102 54.9755 178.047C54.9103 177.991 54.8636 177.917 54.8416 177.834C54.8196 177.751 54.8234 177.663 54.8525 177.582C54.8816 177.501 54.9345 177.431 55.0042 177.381C55.074 177.331 55.1572 177.304 55.2428 177.303C55.3455 177.296 55.4469 177.33 55.5254 177.397C55.6038 177.464 55.6531 177.559 55.6628 177.662V177.662Z" stroke="#263238" stroke-linecap="round" stroke-linejoin="round"/>
<path d="M57.9938 175.32C57.9786 175.421 57.9277 175.512 57.8505 175.578C57.7734 175.644 57.6751 175.68 57.5738 175.679C57.5204 175.69 57.4652 175.69 57.412 175.677C57.3589 175.665 57.3092 175.64 57.2667 175.606C57.2242 175.571 57.1899 175.528 57.1663 175.478C57.1427 175.429 57.1305 175.375 57.1305 175.32C57.1305 175.265 57.1427 175.211 57.1663 175.161C57.1899 175.112 57.2242 175.068 57.2667 175.034C57.3092 175 57.3589 174.975 57.412 174.963C57.4652 174.95 57.5204 174.95 57.5738 174.961C57.6751 174.96 57.7734 174.996 57.8505 175.062C57.9277 175.128 57.9786 175.219 57.9938 175.32Z" stroke="#263238" stroke-linecap="round" stroke-linejoin="round"/>
<path d="M58.1156 177.185C58.1004 177.286 58.0495 177.377 57.9723 177.443C57.8951 177.509 57.7968 177.545 57.6956 177.544C57.6422 177.556 57.5869 177.555 57.5338 177.542C57.4807 177.53 57.431 177.505 57.3885 177.471C57.346 177.437 57.3116 177.393 57.2881 177.344C57.2645 177.294 57.2523 177.24 57.2523 177.185C57.2523 177.13 57.2645 177.076 57.2881 177.027C57.3116 176.977 57.346 176.934 57.3885 176.899C57.431 176.865 57.4807 176.84 57.5338 176.828C57.5869 176.815 57.6422 176.815 57.6956 176.826C57.7968 176.825 57.8951 176.861 57.9723 176.927C58.0495 176.993 58.1004 177.085 58.1156 177.185Z" stroke="#263238" stroke-linecap="round" stroke-linejoin="round"/>
<path d="M73.58 176.43C73.5648 176.53 73.5139 176.622 73.4368 176.688C73.3596 176.754 73.2613 176.79 73.16 176.788C73.1078 176.798 73.0541 176.797 73.0026 176.783C72.9512 176.77 72.9033 176.745 72.8624 176.711C72.8215 176.677 72.7886 176.635 72.766 176.586C72.7434 176.538 72.7316 176.485 72.7316 176.432C72.7316 176.378 72.7434 176.326 72.766 176.277C72.7886 176.229 72.8215 176.186 72.8624 176.152C72.9033 176.118 72.9512 176.094 73.0026 176.08C73.0541 176.067 73.1078 176.065 73.16 176.075C73.2607 176.074 73.3585 176.109 73.4355 176.174C73.5126 176.239 73.5639 176.33 73.58 176.43Z" stroke="#263238" stroke-linecap="round" stroke-linejoin="round"/>
<path d="M73.0844 177.742C73.1027 177.833 73.0922 177.928 73.0545 178.013C73.0168 178.098 72.9537 178.169 72.874 178.216C72.7943 178.263 72.7019 178.284 72.6097 178.276C72.5175 178.268 72.4301 178.232 72.3596 178.171C72.2891 178.111 72.239 178.03 72.2164 177.94C72.1937 177.85 72.1995 177.755 72.233 177.668C72.2665 177.582 72.3261 177.508 72.4034 177.457C72.4807 177.406 72.5719 177.38 72.6644 177.383C72.7657 177.382 72.864 177.418 72.9412 177.484C73.0183 177.55 73.0692 177.642 73.0844 177.742Z" stroke="#263238" stroke-linecap="round" stroke-linejoin="round"/>
<path d="M75.4154 175.4C75.4337 175.491 75.4232 175.586 75.3855 175.671C75.3478 175.756 75.2847 175.827 75.205 175.874C75.1253 175.921 75.0329 175.942 74.9407 175.934C74.8485 175.926 74.7611 175.889 74.6906 175.829C74.6201 175.769 74.57 175.688 74.5474 175.598C74.5247 175.508 74.5305 175.413 74.564 175.326C74.5975 175.24 74.6571 175.166 74.7344 175.115C74.8117 175.064 74.9029 175.038 74.9954 175.041C75.0979 175.035 75.1987 175.069 75.2769 175.136C75.3552 175.203 75.4048 175.297 75.4154 175.4Z" stroke="#263238" stroke-linecap="round" stroke-linejoin="round"/>
<path d="M75.533 177.265C75.5223 177.368 75.4726 177.462 75.3943 177.528C75.3159 177.594 75.2151 177.627 75.113 177.62C75.0448 177.608 74.9813 177.578 74.93 177.531C74.8787 177.485 74.8417 177.425 74.8235 177.358C74.8052 177.291 74.8064 177.22 74.827 177.154C74.8476 177.087 74.8866 177.028 74.9395 176.984C74.9924 176.939 75.0569 176.911 75.1254 176.902C75.1939 176.893 75.2635 176.904 75.326 176.934C75.3885 176.963 75.4412 177.01 75.4778 177.069C75.5145 177.128 75.5337 177.196 75.533 177.265V177.265Z" stroke="#263238" stroke-linecap="round" stroke-linejoin="round"/>
<path d="M117.344 93.4013C117.344 93.4013 116.361 97.06 116.643 100.297C116.947 103.881 118.368 107.277 120.704 110.003C123.363 113.235 136.101 136.445 137.924 138.416C139.747 140.387 147.164 149.527 146.883 153.608C146.601 157.689 144.501 157.123 138.621 155.157C132.741 153.19 130.221 151.781 130.221 151.781C130.221 151.781 130.641 165.846 131.204 172.037C131.767 178.228 134.564 192.571 134.564 192.571H80.384C80.384 192.571 85.424 178.084 87.2426 172.037C88.6331 167.348 89.6167 162.548 90.1826 157.689C90.3212 155.857 83.0426 135.179 81.7826 131.947C80.5226 128.714 76.877 120.553 78.1412 115.911C79.1366 112.265 83.0846 107.618 89.4812 106.061C92.8202 105.251 98.5826 100.997 100.544 97.7648C102.035 95.2961 104.043 88.3373 101.804 82.9948C99.5654 77.6522 99.8426 73.428 102.921 70.6133C106 67.7985 111.884 65.832 116.924 67.2373C121.964 68.6425 123.783 72.3013 122.661 76.6648C121.54 81.0282 117.344 93.4013 117.344 93.4013Z" fill="white" stroke="#263238" stroke-linecap="round" stroke-linejoin="round"/>
<path d="M109.7 89.962C109.7 89.962 111.355 95.3636 113.56 97.7141C115.765 100.065 116.651 100.297 116.651 100.297C116.651 100.297 116.378 97.0431 116.865 95.2328C116.84 95.2243 111.897 92.7303 109.7 89.962Z" fill="#263238" stroke="#263238" stroke-linecap="round" stroke-linejoin="round"/>
<path d="M112.871 111.649C113.354 111.986 113.711 112.277 113.711 112.277" stroke="#263238" stroke-linecap="round" stroke-linejoin="round"/>
<path d="M99.7502 107.673C99.7502 107.673 110.372 110.395 111.414 110.813" stroke="#263238" stroke-linecap="round" stroke-linejoin="round"/>
<path d="M116.643 100.297C116.643 100.297 117.033 107.471 117.243 108.931" stroke="#263238" stroke-linecap="round" stroke-linejoin="round"/>
<path d="M131.204 172.037C130.641 165.846 130.221 151.781 130.221 151.781C130.221 151.781 133.094 141.159 132.254 136.306C131.792 133.635 128.335 124.752 125.32 117.316C124.114 115.278 123.027 113.476 122.166 112.125C122.835 113.603 123.396 115.128 123.846 116.687C125.106 121.329 125.034 126.887 117.474 127.731C109.914 128.575 102.644 117.316 100.544 113.307C99.032 110.421 95.3402 106.331 93.404 104.268C92.4261 104.884 91.3891 105.4 90.3086 105.808C92.144 107.028 95.1932 109.665 98.2424 114.995C103.072 123.435 103.282 133.985 100.132 137.783C97.1924 141.319 91.7324 143.391 84.353 139.049C86.8982 146.324 90.2876 156.431 90.191 157.685C89.6252 162.544 88.6415 167.344 87.251 172.033C85.424 178.084 80.384 192.571 80.384 192.571H134.564C134.564 192.571 131.763 178.223 131.204 172.037Z" fill="#EF476F" stroke="#263238" stroke-linecap="round" stroke-linejoin="round"/>
<path d="M122.3 161.909C116.378 168.939 107.6 178.789 101.401 183.207" stroke="#263238" stroke-linecap="round" stroke-linejoin="round"/>
<path d="M128.697 154.06C128.697 154.06 126.828 156.448 123.955 159.908" stroke="#263238" stroke-linecap="round" stroke-linejoin="round"/>
<path d="M92.6564 181.46C91.5812 182.207 90.653 182.819 89.9474 183.228" stroke="#263238" stroke-linecap="round" stroke-linejoin="round"/>
<path d="M110.275 167.888C110.275 167.888 100.729 175.607 94.2818 180.278" stroke="#263238" stroke-linecap="round" stroke-linejoin="round"/>
<path d="M108.381 87.6368C108.381 87.6368 110.901 92.2788 115.383 94.6673C119.864 97.0558 126.303 99.0308 127.281 98.6088C128.26 98.1868 130.364 91.7133 130.364 91.7133L131.343 90.8693L131.481 88.4808C131.481 88.4808 134.283 87.6368 134.283 86.932C134.283 86.2273 132.321 82.712 131.763 81.024C131.204 79.336 133.724 76.9433 133.724 75.8208C133.724 74.6982 133.581 70.474 133.581 70.474C133.581 70.474 134.001 68.0813 131.204 65.2708C128.407 62.4602 116.504 64.8488 112.443 67.3808C108.381 69.9128 107.961 71.6008 107.961 71.6008" fill="white"/>
<path d="M108.381 87.6368C108.381 87.6368 110.901 92.2788 115.383 94.6673C119.864 97.0558 126.303 99.0308 127.281 98.6088C128.26 98.1868 130.364 91.7133 130.364 91.7133L131.343 90.8693L131.481 88.4808C131.481 88.4808 134.283 87.6368 134.283 86.932C134.283 86.2273 132.321 82.712 131.763 81.024C131.204 79.336 133.724 76.9433 133.724 75.8208C133.724 74.6982 133.581 70.474 133.581 70.474C133.581 70.474 134.001 68.0813 131.204 65.2708C128.407 62.4602 116.504 64.8488 112.443 67.3808C108.381 69.9128 107.961 71.6008 107.961 71.6008" stroke="#263238" stroke-linecap="round" stroke-linejoin="round"/>
<path d="M131.267 87.8815L129.902 88.5145L129.377 87.4595" stroke="#263238" stroke-linecap="round" stroke-linejoin="round"/>
<path d="M125.463 75.8208C126.193 75.1591 127.107 74.7372 128.083 74.6112C129.059 74.4853 130.049 74.6614 130.923 75.116" stroke="#263238" stroke-width="2" stroke-linecap="round" stroke-linejoin="round"/>
<path d="M128.684 78.07V80.3193C128.684 80.3193 127.281 80.8847 125.324 80.0407" stroke="#263238" stroke-linecap="round" stroke-linejoin="round"/>
<path d="M129.406 80.4543C129.406 80.4543 126.886 80.9987 125.206 79.9352" stroke="#263238" stroke-linecap="round" stroke-linejoin="round"/>
<path d="M110.061 50.5007C110.061 50.5007 113.283 49.5133 113.283 45.998C113.283 42.4827 105.861 38.5413 99.0026 40.09C92.144 41.6387 87.3812 50.3573 89.9012 53.8767C92.4212 57.3962 97.184 56.8307 98.7212 55.8433C100.258 54.8558 106.983 51.906 106.983 51.906L110.061 50.5007Z" fill="#263238" stroke="#263238" stroke-linecap="round" stroke-linejoin="round"/>
<path d="M107.109 78.1755C107.109 78.1755 109.851 78.5975 111.54 77.3315C113.228 76.0655 114.48 72.8794 115.32 72.2422C116.16 71.605 118.066 72.4532 120.599 71.605C123.132 70.7567 126.084 68.0011 126.084 68.0011L125.874 71.605C127.839 71.4293 129.811 71.3588 131.784 71.394C136.005 71.394 137.693 70.3348 137.693 70.3348C137.942 66.3917 136.989 62.466 134.963 59.08C131.603 53.5645 118.927 50.5978 111.54 49.9606C104.152 49.3234 97.3982 53.5645 94.4456 59.291C91.493 65.0176 89.0486 79.4289 94.2188 85.455C103.879 96.7224 105.206 81.5557 105.42 80.7075C105.634 79.8593 107.109 78.1755 107.109 78.1755Z" fill="#263238" stroke="#263238" stroke-linecap="round" stroke-linejoin="round"/>
<path d="M109.217 79.0237C109.217 79.0237 106.894 71.6008 104.152 72.8752C101.409 74.1496 103.732 81.5684 105.412 82.6276C107.092 83.6868 107.73 81.9904 107.73 81.9904" fill="white"/>
<path d="M109.217 79.0237C109.217 79.0237 106.894 71.6008 104.152 72.8752C101.409 74.1496 103.732 81.5684 105.412 82.6276C107.092 83.6868 107.73 81.9904 107.73 81.9904" stroke="#263238" stroke-linecap="round" stroke-linejoin="round"/>
<path d="M136.101 148.261C136.101 148.261 136.941 145.873 137.781 140.243C138.621 134.614 138.344 119.709 137.643 118.299C136.941 116.89 134.421 110.703 134.564 108.315C134.707 105.926 143.943 99.592 145.203 99.4528C146.463 99.3135 148.563 101.702 148.563 103.529C148.563 105.357 142.683 113.379 142.683 113.379C142.683 113.379 142.821 116.611 143.804 119.004C144.787 121.397 149.823 137.711 149.121 145.873C148.42 154.034 148.143 156.562 145.904 156.845C143.665 157.127 136.803 154.313 136.803 154.313" fill="white"/>
<path d="M136.101 148.261C136.101 148.261 136.941 145.873 137.781 140.243C138.621 134.614 138.344 119.709 137.643 118.299C136.941 116.89 134.421 110.703 134.564 108.315C134.707 105.926 143.943 99.592 145.203 99.4528C146.463 99.3135 148.563 101.702 148.563 103.529C148.563 105.357 142.683 113.379 142.683 113.379C142.683 113.379 142.821 116.611 143.804 119.004C144.787 121.397 149.823 137.711 149.121 145.873C148.42 154.034 148.143 156.562 145.904 156.845C143.665 157.127 136.803 154.313 136.803 154.313" stroke="#263238" stroke-linecap="round" stroke-linejoin="round"/>
<path d="M145.224 93.0848C145.224 93.0848 144.35 91.0929 143.636 90.6119C142.922 90.1308 139.986 90.135 140.381 91.0128C140.776 91.8905 142.447 91.8905 142.447 91.8905L143.796 93.1565C143.796 93.1565 145.144 94.3592 145.224 93.0848Z" fill="white" stroke="#263238" stroke-linecap="round" stroke-linejoin="round"/>
<path d="M147.727 100.761L140.868 90.7849C139.717 88.4259 135.933 87.9153 132.414 89.6455C128.894 91.3757 126.954 94.7095 128.121 97.0516C128.34 97.5024 128.659 97.8966 129.054 98.2036L134.984 107.028L147.727 100.761Z" fill="#EF476F" stroke="#263238" stroke-linecap="round" stroke-linejoin="round"/>
<path d="M143.436 108.162C146.955 106.431 148.876 103.116 147.726 100.757C146.577 98.3974 142.793 97.8878 139.274 99.6184C135.755 101.349 133.834 104.664 134.983 107.024C136.133 109.383 139.917 109.892 143.436 108.162Z" fill="#EF476F" stroke="#263238" stroke-linecap="round" stroke-linejoin="round"/>
<path d="M91.1612 110.564C91.1612 110.564 97.7762 114.176 99.9518 123.064C101.245 128.343 113.421 141.653 113.421 141.653C113.421 141.653 118.041 111.969 118.041 107.471C118.041 102.972 127.143 93.1228 128.403 92.7008C129.663 92.2788 133.023 91.2913 134.283 92.2788C134.65 92.5633 134.953 92.9237 135.17 93.3357C135.388 93.7477 135.515 94.2018 135.543 94.6673C135.943 95.4056 136.182 96.2214 136.244 97.06C136.269 97.5804 136.221 98.1019 136.101 98.6088C136.352 99.3301 136.448 100.097 136.383 100.858C136.331 101.439 136.189 102.009 135.963 102.546C135.909 103.95 135.473 105.311 134.703 106.483C133.443 108.315 129.104 111.125 127.281 112.113C125.908 112.942 124.639 113.934 123.501 115.067C123.501 115.067 126.021 135.884 125.463 145.307C124.904 154.731 122.103 160.499 120.284 160.921C118.465 161.343 113.841 160.077 105.303 153.325C96.764 146.573 84.164 131.803 81.3626 128.993" fill="white"/>
<path d="M91.1612 110.564C91.1612 110.564 97.7762 114.176 99.9518 123.064C101.245 128.343 113.421 141.653 113.421 141.653C113.421 141.653 118.041 111.969 118.041 107.471C118.041 102.972 127.143 93.1228 128.403 92.7008C129.663 92.2788 133.023 91.2913 134.283 92.2788C134.65 92.5633 134.953 92.9237 135.17 93.3357C135.388 93.7477 135.515 94.2018 135.543 94.6673C135.943 95.4056 136.182 96.2214 136.244 97.06C136.269 97.5804 136.221 98.1019 136.101 98.6088C136.352 99.3301 136.448 100.097 136.383 100.858C136.331 101.439 136.189 102.009 135.963 102.546C135.909 103.95 135.473 105.311 134.703 106.483C133.443 108.315 129.104 111.125 127.281 112.113C125.908 112.942 124.639 113.934 123.501 115.067C123.501 115.067 126.021 135.884 125.463 145.307C124.904 154.731 122.103 160.499 120.284 160.921C118.465 161.343 113.841 160.077 105.303 153.325C96.764 146.573 84.164 131.803 81.3626 128.993" stroke="#263238" stroke-linecap="round" stroke-linejoin="round"/>
<path d="M135.543 94.6673C135.543 94.6673 130.784 96.216 130.083 96.9208" stroke="#263238" stroke-linecap="round" stroke-linejoin="round"/>
<path d="M136.101 98.6087L132.183 100.575" stroke="#263238" stroke-linecap="round" stroke-linejoin="round"/>
<path d="M135.963 102.546C135.963 102.546 132.884 103.251 132.741 103.673" stroke="#263238" stroke-linecap="round" stroke-linejoin="round"/>
<path d="M146.009 94.2368C146.009 94.2368 144.358 91.8188 143.329 91.7512C142.3 91.6837 140.65 92.4433 141.129 93.0637C141.607 93.684 142.918 93.5447 143.329 93.5447C143.741 93.5447 145.665 94.5829 145.665 94.5829C145.665 94.5829 146.076 94.5829 146.009 94.2368Z" fill="white" stroke="#263238" stroke-linecap="round" stroke-linejoin="round"/>
<path d="M147.315 97.6888C147.132 96.5747 146.747 95.5035 146.181 94.528C145.341 93.262 141.423 93.262 142.263 94.528C143.103 95.794 144.783 95.372 145.203 95.794C145.623 96.216 147.303 98.748 147.303 98.748L147.315 97.6888Z" fill="white" stroke="#263238" stroke-linecap="round" stroke-linejoin="round"/>
<path d="M148.281 100.719C148.281 100.719 148.004 97.904 147.021 96.9208C146.038 95.9375 143.241 96.0768 144.081 96.9208L147.164 100.014C147.164 100.014 148.004 102.124 148.281 100.719Z" fill="white" stroke="#263238" stroke-linecap="round" stroke-linejoin="round"/>
<path d="M138.172 86.4341C138.77 86.2616 139.383 86.1444 140.003 86.0838C143.581 85.704 144.938 86.9278 149.041 85.8939C155.068 84.3831 155.619 79.8298 152.62 79.087C149.621 78.3443 149.419 81.9229 149.982 82.4884" stroke="#263238" stroke-linecap="round" stroke-linejoin="round"/>
<path d="M135.862 87.9743C136.03 87.6462 136.282 87.3694 136.593 87.1725" stroke="#263238" stroke-linecap="round" stroke-linejoin="round"/>
<path d="M144.274 83.134C145.076 83.2013 145.88 83.0373 146.593 82.6614" stroke="#263238" stroke-linecap="round" stroke-linejoin="round"/>
<path d="M134.543 85.8939C135.049 84.9833 135.787 84.2237 136.68 83.6922C137.574 83.1607 138.591 82.8764 139.629 82.8681C141.036 82.8681 142.149 82.9863 143.09 83.0707" stroke="#263238" stroke-linecap="round" stroke-linejoin="round"/>
<path d="M112.149 75.6477C112.149 75.6477 112.279 79.3529 110.435 82.3997C110.073 82.9679 109.664 83.5044 109.213 84.0033L108.658 84.6279C106.424 87.1008 103.618 89.9789 105.03 94.3339C106.873 100.031 112.413 96.0557 112.413 96.0557C112.413 96.0557 108.327 96.849 106.613 92.8738C104.899 88.8985 107.272 85.7209 109.645 84.7967C112.018 83.8725 115.71 77.3779 113.997 72.871" fill="#263238"/>
<path d="M112.149 75.6477C112.149 75.6477 112.279 79.3529 110.435 82.3997C110.073 82.9679 109.664 83.5044 109.213 84.0033L108.658 84.6279C106.424 87.1008 103.618 89.9789 105.03 94.3339C106.873 100.031 112.413 96.0557 112.413 96.0557C112.413 96.0557 108.327 96.849 106.613 92.8738C104.899 88.8985 107.272 85.7209 109.645 84.7967C112.018 83.8725 115.71 77.3779 113.997 72.871" stroke="#263238" stroke-linecap="round" stroke-linejoin="round"/>
<path d="M197.367 192.584H202.121" stroke="#263238" stroke-linecap="round" stroke-linejoin="round"/>
<path d="M11.3444 192.584H194.204" stroke="#263238" stroke-linecap="round" stroke-linejoin="round"/>
</svg>
